<svg id="Layer_2" data-name="Layer 2" xmlns="http://www.w3.org/2000/svg" viewBox="0 0 432 432"><title>nc-combined-plot</title><path d="M188.34,305c-.08-.44-.5-.46-.79-.64a12.07,12.07,0,0,1-1.2-.76,1,1,0,0,1-.36-1.14c1.69-.89,3.07.14,4.55.57a2.52,2.52,0,0,0,.26-1.78c-.18-1.29-.29-2.58-.43-3.87,0-.07-.11-.13-.13-.16-.57.44-1.12.85-1.66,1.28a3.64,3.64,0,0,0-.66.6.67.67,0,0,1-.85.28.94.94,0,0,1-.46-1.06,4.23,4.23,0,0,1,1.81-2.09.81.81,0,0,1,.65,0,10.19,10.19,0,0,1,1.11.63c.07-.8.17-1.57.18-2.33a1.23,1.23,0,0,1,.59-1.08,6.37,6.37,0,0,1,2.65-.92c2.14-.49,4.3-.89,6.45-1.32.9-.18,1.1-.44,1.21-1.36a11.86,11.86,0,0,0-.33-3.51,1.84,1.84,0,0,0-.21-.4c-.66.4-1.3.76-1.91,1.16-.32.21-.6.42-1,.13a1,1,0,0,1-.25-1.29c.33-.43.57-.91,1.25-1a9.23,9.23,0,0,0,2-1c0-.59,0-1.36,0-2.13-.07-1.12-.21-2.24-.31-3.36-.08-1-.19-1.94-.19-2.92a1.07,1.07,0,0,1,.55-.72,17.76,17.76,0,0,1,1.8-.73v-2c.65-.77,1.4-.16,2.12,0l.27.84-.54.76c.64-.06,1.19-.13,1.75-.16s1.19-.06,1.78-.06c1.13,0,2.27,0,3.4,0a12.55,12.55,0,0,1,1.33.06c.39,0,.57-.11.59-.47,0-.54,0-1.07,0-1.61a1,1,0,0,1,.79-1,18.81,18.81,0,0,1,2.28-.38c2.42-.18,4.85-.29,7.28-.48.93-.07,1.25-.51,1.25-1.46,0-.42,0-.84,0-1.25a1.06,1.06,0,0,1,1-1.11,8.29,8.29,0,0,1,1-.08,11.22,11.22,0,0,0,2.8-.52c1-.29,2.11-.38,3.13-.68,1.23-.35,2.48,0,3.7-.22.06,0,.14,0,.18,0,.63.52,1.31.13,2,.15,1.07,0,2.14.18,3.21.21.8,0,1.6-.05,2.41-.08h9.73a16.93,16.93,0,0,0,.19-3.2c-.07-1.69,0-3.39,0-5.08a9.08,9.08,0,0,1,.05-1.95,13.41,13.41,0,0,0,.33-3.45c0-.32-.07-.65-.1-1a.86.86,0,0,1,.58-1c1.24-.39,2.49-.79,3.75-1.1a7,7,0,0,1,1.85-.12c1.78.05,3.56.16,5.34.21a9.82,9.82,0,0,0,1.38-.15c0-.33,0-.53,0-.73a2.3,2.3,0,0,1,0-.6c.23-.85.47-1.7.73-2.54a2,2,0,0,1,1.46-1.19,10.55,10.55,0,0,1,4.46-.69,24.9,24.9,0,0,0,3.39-.14.79.79,0,0,0,.77-.61,6.68,6.68,0,0,0,.42-3.06c0-.56,0-1.13,0-1.69a2.06,2.06,0,0,0,0-.53,10,10,0,0,1,.09-4.5,4,4,0,0,1,2.85-3.36,6.92,6.92,0,0,1,3.35-.23c.73.14,1.47.25,2.21.33a9.11,9.11,0,0,0,1.34,0c.53,0,1.06-.07,1.58-.1.8,0,.91-.19,1.22-.93a12.84,12.84,0,0,0,.77-4.81,16.66,16.66,0,0,1,.45-3.08c.36-1.78.78-3.54,1.17-5.31.2-.89.51-1.26,1.4-1.35,1.24-.12,2.49-.14,3.73-.24,1-.08,2-.22,3-.36.41-.06.66-.44.69-1s0-1.31.05-2c.09-1.78.15-3.56.32-5.33.21-2.22.59-4.43.77-6.65a34.06,34.06,0,0,0,.25-4.34,8.62,8.62,0,0,1,.39-1.92,13.33,13.33,0,0,0,.22-1.49,1.08,1.08,0,0,1,.86-1.15,1.72,1.72,0,0,0,.66-.24,1,1,0,0,1,1.2-.26c.14.06.4-.07.55-.18a1.7,1.7,0,0,1,1.89-.4,1.11,1.11,0,0,0,.7.09,5.83,5.83,0,0,1,3.33.35c.7.55.43,1.16.2,1.79a1.63,1.63,0,0,1-1.47,1.09c-1.17.18-2.33.44-3.5.66a.86.86,0,0,0-.76.84,31.1,31.1,0,0,0-.46,4.5,33.75,33.75,0,0,1-.56,5.4,45.69,45.69,0,0,0-.59,6c-.05,1.45-.07,2.9-.15,4.35-.06.92-.11,1.91-1,2.44a8.64,8.64,0,0,1-1.91.69,5.52,5.52,0,0,1-1.16.11l-4.27.25c-.56,0-.63.15-.73.79a22.22,22.22,0,0,1-.72,3.94,21.86,21.86,0,0,0-.82,5.42,4.27,4.27,0,0,1-.06.53c-.25,1.12-.5,2.25-.77,3.37a3.57,3.57,0,0,1-.38,1,1.43,1.43,0,0,1-1.43.86c-.41,0-.83-.06-1.25-.08a7.47,7.47,0,0,0-1.52-.06,21.29,21.29,0,0,1-5.52-.18,1.87,1.87,0,0,0-1.62.29,1.45,1.45,0,0,0-.44.64,11.78,11.78,0,0,0-.25,3.27,25.11,25.11,0,0,1,0,5.34,23,23,0,0,1-.91,3.26,1.8,1.8,0,0,1-2.39,1.13,2.45,2.45,0,0,0-.69-.15c-1.1,0-2.19,0-3.29.06a7.41,7.41,0,0,1-1.07,0,2.51,2.51,0,0,0-2.79,2.79,7.2,7.2,0,0,1-.28,2.23,1.1,1.1,0,0,1-1,.9c-1.42.09-2.84.17-4.26.2-1.13,0-2.26,0-3.39-.07a1.85,1.85,0,0,1-.79-.11c-1-.56-1.83.2-2.69.49-.15,0-.27.38-.28.58-.14,2.7-.29,5.4-.35,8.11,0,1.6,0,3.21.12,4.81a5.12,5.12,0,0,1,0,1.84c-.19.62-.42,1.2-1.21,1.21-1.28,1-2.75.34-4.13.41s-2.86,0-4.29,0c-2.26-.07-4.52-.2-6.78-.27a10.21,10.21,0,0,0-2.66-.09,3.24,3.24,0,0,1-1.07,0,17,17,0,0,0-5.49.18c-1.22.26-2.43.58-3.64.87-.25.58-.53,1.14-.74,1.72a2.79,2.79,0,0,1-2.59,2.07,70.68,70.68,0,0,1-7.67.44,2.68,2.68,0,0,0-.59.1c-.2.7-.42,1.35-.58,2a1.57,1.57,0,0,1-1.42,1.28c-.94.11-1.9.13-2.85.16a56.68,56.68,0,0,0-6.88.2,2.21,2.21,0,0,0-1.42.46,57.25,57.25,0,0,1,.36,7.29c0,1.51.29,3,.38,4.52a7,7,0,0,1-.15,1.76c-.11.58-.37,1.13-.5,1.71a2.59,2.59,0,0,1-1,1.34.69.69,0,0,1-.48.19c-1.29-.23-2.47.33-3.69.51-1.38.21-2.74.55-4.11.84a3.22,3.22,0,0,0-.43.16,1.87,1.87,0,0,0-.11.62,23.31,23.31,0,0,1,.17,2.62q.09,1.32.22,2.64c.11,1.11.25,2.23.37,3.34a2.64,2.64,0,0,1,0,.42c-.06,1.1-.19,2.19-.15,3.28,0,1.31.28,2.61.34,3.92a9.4,9.4,0,0,1-.26,1.85c0,.17-.14.36-.1.52a6.18,6.18,0,0,1-.27,2.54,11.26,11.26,0,0,0-.16,1.42c-.08,1.93-.09,3.87-.21,5.8a8.19,8.19,0,0,1-.51,2.42c-.3.76-1.1.95-1.85,1.06s-1.64.21-2.53.32c-.06,1-.1,2-.16,3-.18,2.88,0,5.77-.34,8.65-.16,1.26-.11,2.56-.15,3.84q-.13,3.61-.26,7.23a2.58,2.58,0,0,0,0,.8,2,2,0,0,1-.74,2.25l.43.56a4.77,4.77,0,0,1-.56.81,1.69,1.69,0,0,1-.81.49c-.85.14-1.71.17-2.57.27-.61.08-1.23.18-1.83.31a15.9,15.9,0,0,1-5.22.49,11.62,11.62,0,0,0-2,.18,8.12,8.12,0,0,1-1.06,0,4,4,0,0,0-.88-.07,2.14,2.14,0,0,1-1.21-.1c-.61-.24-.83,0-.92.63a16.37,16.37,0,0,1-.44,2.36,1.19,1.19,0,0,1-1,.88c-.79.09-1.59.13-2.38.26-1,.17-2.13-.11-3.17.37-.4.19-1,0-1.47,0a2.5,2.5,0,0,0-.59.13c-.39.1-.78.25-1.18.31-.72.12-.88.28-1,1s-.26,1.45-.33,2.19a1.52,1.52,0,0,1-.77,1.15,4.7,4.7,0,0,1-2.4.82c-1.61,0-3.22,0-4.83,0-.41,0-.83.1-1.24.14a5,5,0,0,1-2.77-.3l.07-.45c-.74.42-1.21-.26-1.82-.36a.41.41,0,0,1-.17-.67c.33-.44.77-.8,1.06-1.27.81-1.31,2.15-1,3.32-1.1,1.81-.11,3.64-.07,5.46-.08a.91.91,0,0,0,.85-.54,5.2,5.2,0,0,0-.09-3.63,2.34,2.34,0,0,1,.7-.42c1.05-.18,2.12-.31,3.18-.45l1.32-.18,1.05-.18c.21,0,.45,0,.62-.06a8.68,8.68,0,0,1,3.68-.46h.09c.78-.08,1-.3,1-1.08a6.55,6.55,0,0,1,0-1.34,1.67,1.67,0,0,1,2-1.3,17.19,17.19,0,0,0,4.27,0,17.77,17.77,0,0,1,2.05-.09,15.19,15.19,0,0,0,4.57-.62,22.45,22.45,0,0,1,3.38-.56l-.3-.85a3.57,3.57,0,0,1-.38.09c-.72.08-.76.06-1-.65s-.27-.67.35-1.07a12.17,12.17,0,0,1,1.12-.59c.12-.41-.17-1,.35-1.34-.18-.62.33-1.23,0-1.88a3,3,0,0,1-.13-.91c-.49.23-1,.79-1.68.62-.61-.87-.7-1.22-.19-1.62s1-1,1.76-.89c.08,0,.16-.06.3-.11,0-1.9-.37-3.84.26-5.74a7.75,7.75,0,0,1-.7.63c-.45.32-.83.33-1.05.08a1.27,1.27,0,0,1-.17-1.4c.52-.78.8-.89,1.91-.73a1.68,1.68,0,0,0,.12-1.51c-.11-.29-.26-.72-.14-.92.56-.92-.13-1.85.25-2.75l-.17,0a3.63,3.63,0,0,1-.63.58,2.39,2.39,0,0,1-1,.34.85.85,0,0,1-.66-.35.79.79,0,0,1,.07-.92,1.74,1.74,0,0,1,2.16-.49,1.26,1.26,0,0,0,.3-1.45,1.71,1.71,0,0,1,1-2.34,3.86,3.86,0,0,1,2.06-.45,10.53,10.53,0,0,0,1.36-.1c.11-.45.2-.86.31-1.25s.19-.61.28-.92.2-.41.16-.59a8.94,8.94,0,0,1,.17-2.89,1.66,1.66,0,0,0-.06-.7,3.62,3.62,0,0,1,0-2,25,25,0,0,0,.58-2.78,13.14,13.14,0,0,0-.12-4.86c-.44-1.65-.08-3.31-.41-5l-.69.6a2.24,2.24,0,0,0-1.7-.19Z"/><path d="M226.84,390.94c-.06.79-.15,1.51-.16,2.24a.77.77,0,0,1-.76.88.85.85,0,0,1-1.07-.64,3.42,3.42,0,0,1-.11-1.84,2,2,0,0,0,0-.65c-.9,0-1.76,0-2.61,0a24.28,24.28,0,0,1-4,.11,23.64,23.64,0,0,0-3.17.12l-2.85.12a1.53,1.53,0,0,0-.61.09,1.39,1.39,0,0,1-1.8-.11c-.08-.07-.28,0-.43,0a17.37,17.37,0,0,0-3,.25,8.61,8.61,0,0,1-2-.13,3.9,3.9,0,0,0-.53,0c-.85.05-1.7.14-2.54.16-.44,0-.88-.16-1.32-.15-1.24,0-2.49.11-3.73.15-.56,0-1.13,0-1.69,0a8,8,0,0,1-2.06.05,8.83,8.83,0,0,0-2.29.18,5.18,5.18,0,0,1-2.9-.14c-.85.24-1.71-.16-2.54,0a6.16,6.16,0,0,1-3.17,0,1.29,1.29,0,0,0-.7,0,9.64,9.64,0,0,0-2.56.57c-.16.09-.46,0-.69-.06-1.13-.08-2.25-.17-3.38-.23a7.72,7.72,0,0,0-1.69,0c-1.17.2-2.38-.16-3.53.3-.19.07-.45,0-.68-.08a7.13,7.13,0,0,0-1-.17c-1,0-2,0-3,0a.31.31,0,0,0-.17,0c-.74.58-1.61.16-2.41.32a2.63,2.63,0,0,1-1.06-.12,5.63,5.63,0,0,0-3.07.12,1.32,1.32,0,0,1-1-.14,1.43,1.43,0,0,0-1.36-.17,4,4,0,0,1-1.87.14c-.65,0-1.3-.07-2-.09-.47,0-.94,0-1.42,0a2.07,2.07,0,0,0,.17,1.51,1.63,1.63,0,0,1-.6,2.21,2.72,2.72,0,0,1-1.5-2.67c0-.21,0-.42,0-.63,0-.39-.23-.63-.64-.56a26.76,26.76,0,0,0-3.09.25,8.27,8.27,0,0,1-2.57-.06c-.18,0-.37-.13-.52-.08-1.42.46-2.9,0-4.34.28a8,8,0,0,1-1.94-.05c-1.42-.07-2.85-.15-4.27-.24-.44,0-.87-.16-1.31-.16s-1,.11-1.49.14c-.65,0-1.3.06-1.95.08l-1.05,0a3.47,3.47,0,0,0,.16,2.22,6.85,6.85,0,0,1,0,3.18c-.16.62-.41.86-.9.71-.74-.22-.93-.41-.8-1a6.53,6.53,0,0,0-.08-3.17,12.76,12.76,0,0,1-.25-1.73c-1-.1-2-.58-3,0a.69.69,0,0,1-.58,0,5.28,5.28,0,0,1-1.27-.78c-.21-.19-.23-.6-.31-.86.34-1.13,1.25-.88,2-.86s1.42.14,2.13.18.95-.27.76-1a8.7,8.7,0,0,1-.3-1.38c-.05-.5,0-1,0-1.5s-.13-1-.21-1.48c0-.12-.11-.24-.09-.34a8.64,8.64,0,0,0-.2-2.92c-.06-.86-.25-1.7-.38-2.55a1.26,1.26,0,0,1,0-.35,5.42,5.42,0,0,0-.34-2.21,8.91,8.91,0,0,1-.21-1.65,11.17,11.17,0,0,0-.23-2.81c-.29-.83,0-1.57-.11-2.33-.05-.34-.11-.69-.18-1,0-.09-.1-.18-.08-.25.39-1.22-.23-2.43,0-3.67a7.76,7.76,0,0,0-.2-1.85,5.93,5.93,0,0,1,.18-1.15,3.69,3.69,0,0,1-.39-2.34,23.58,23.58,0,0,0-.13-3.1,5.58,5.58,0,0,1,0-2.9.4.4,0,0,0,0-.26c-.49-1.34,0-2.77-.42-4.12a2.38,2.38,0,0,1,0-.79,1.8,1.8,0,0,0,0-.61,2.22,2.22,0,0,1-.07-1.48,1.41,1.41,0,0,0-.06-.61c0-.21-.17-.45-.1-.61.31-.69,0-1.36,0-2s.14-1.36.16-2c0-1,0-2,0-2.94a5.75,5.75,0,0,1,.13-2.42.41.41,0,0,0,0-.26c-.53-1.82-.07-3.66-.09-5.48a19.38,19.38,0,0,0,0-3.44,25,25,0,0,1-.19-3.52,31.54,31.54,0,0,0-.15-3.18c-.15-1,.21-2.1-.2-3.15a1.46,1.46,0,0,1,.19-1.52,1,1,0,0,0,0-.83,5.26,5.26,0,0,1-.45-2.51c0-.53-.17-1.06-.17-1.59,0-1.23-.07-2.46-.13-3.69a4.41,4.41,0,0,1,.42-1.3c-.06-.22-.16-.62-.26-1,0-.14-.12-.33-.07-.43.32-.6.09-1.2.07-1.81a5.32,5.32,0,0,1,.21-1.93,4.08,4.08,0,0,0,.06-1.32c0-1,0-2,0-3.07,0-1.83-.06-3.65-.07-5.48a10.83,10.83,0,0,1,.12-2.11,1.41,1.41,0,0,0-.09-.7c-.09-.26-.19-.48,0-.74a.6.6,0,0,0,0-.51,1,1,0,0,1,0-.94.33.33,0,0,0,0-.26c-.49-1-.17-2.06-.37-3.08a3.55,3.55,0,0,0-2-.06c-.77.11-1.21-.16-1.35-.9s.09-1.32.87-1.47c.61-.12,1.24-.12,1.87-.19s.73-.21.66-.79c-.05-.4-.15-.8-.24-1.2,0-.09-.09-.21-.06-.25.61-.65-.13-1.46.26-2.13a.38.38,0,0,0,0-.26c-.39-1.39-.09-2.82-.25-4.23a29.39,29.39,0,0,1,0-3.64c0-.11,0-.28.07-.33.61-.41.35-.92.18-1.42a4,4,0,0,1-.23-.95c-.08-1.15-.14-2.3-.18-3.45,0-.48,0-1,0-1.44s.11-1,.12-1.48a38.05,38.05,0,0,1,.09-3.86c.17-1.32-.1-2.62.06-3.94a10.7,10.7,0,0,0-.24-3.77c0-.17-.16-.37-.11-.52.34-1.09-.06-2.13-.15-3.19a.45.45,0,0,1,0-.26c.46-.72,0-1.49.14-2.24,0-.24-.32-.64-.23-.79a1,1,0,0,0-.11-1.16L118,237a.86.86,0,0,0-.11-.25,1,1,0,0,1-.12-1.36,1.26,1.26,0,0,0,.18-.76c-.08-1.17-.22-2.34-.28-3.51,0-.58.07-1.17.07-1.76a6.78,6.78,0,0,0-.36-2.22,5.37,5.37,0,0,1-.09-1.57c0-1.47-.24-2.94-.16-4.42a6.37,6.37,0,0,0-.22-2,5.52,5.52,0,0,1,.19-2.71c.07-.34.26-.75.14-1a5.12,5.12,0,0,1-.12-1.81c-.08-1.06-.24-2.12-.36-3.17a9.74,9.74,0,0,1-.23-3,1.42,1.42,0,0,0-.14-.78,8.54,8.54,0,0,1-.33-2.69c-.09-.88-.07-1.77-.12-2.65-.07-1.06-.16-2.13-.25-3.19,0-.09-.06-.19,0-.26.36-1.16-.17-2.35.12-3.52a3.19,3.19,0,0,0,0-.69c0-.71,0-1.43,0-2.14a5.92,5.92,0,0,0-.11-.76l-1-.16a2.59,2.59,0,0,1-.61-.12,1.27,1.27,0,0,1-.86-1.06c0-.49.41-.7.82-.82s.85-.19,1.36-.3c.12-.32.28-.73.41-1.15a1.07,1.07,0,0,0,0-.43c-.08-.55-.16-1.11-.24-1.66s-.19-1.34-.29-2a14.16,14.16,0,0,1-.18-1.5c0-.19.18-.39.3-.65a1.33,1.33,0,0,1-.18-1.44,8,8,0,0,0,.39-1.82A6.47,6.47,0,0,0,115,174a1.82,1.82,0,0,1-.07-.87c.22-1,.47-1.28,1.65-1.82.07.22.22.45.18.62a11.46,11.46,0,0,0-.05,3.19c0,1.76.08,3.51.16,5.27,0,.77.15,1.54.19,2.31s0,1.71.07,2.57c0,1,.08,2.07.13,3.22.7,0,1.31,0,1.91,0a2.84,2.84,0,0,1,.85.2.67.67,0,0,1,.41.87,1.49,1.49,0,0,1-1.15.84c-.45,0-.89,0-1.34,0s-.6.18-.61.59c0,.68-.08,1.37-.06,2.05.08,2.62.2,5.24.28,7.86.06,1.88,0,3.75.12,5.63,0,.74.2,1.47.26,2.21.12,1.36.2,2.73.3,4.09,0,.24,0,.47.07.71.07.62.17,1.24.2,1.87.06,1.25.1,2.49.13,3.74.06,2.35.1,4.7.19,7.06.07,2,.22,4,.3,6,0,1.16,0,2.32.05,3.48s.08,2.5.11,3.74c0,1.9.07,3.8.11,5.7,0,1.49.12,3,.13,4.47,0,3.24,0,6.49,0,9.73,0,1.46.1,2.92.15,4.37s.07,2.8.1,4.2.08,2.8.09,4.2c0,2,0,3.94,0,5.91,0,.2,0,.4,0,.62a1,1,0,0,0,1-.26,1.49,1.49,0,0,1,2.12.41.61.61,0,0,1-.13.74c-.7.77-1.31,1.63-2.5,1.69-.45,0-.55.35-.53.77,0,1.52.08,3,.1,4.55,0,2.38,0,4.76.09,7.15,0,1.52.17,3,.18,4.55,0,1.31-.08,2.61-.12,3.92,0,.41,0,.83,0,1.24,0,2,0,4,.12,6.05q.28,6.92.64,13.85c.16,3,.08,6.08,0,9.12-.06,1.78,0,3.56,0,5.34,0,2.29-.06,4.57,0,6.86,0,1.67.18,3.33.26,5,.05,1.07.05,2.14.11,3.22.08,1.46.19,2.92.27,4.37.1,1.93.17,3.86.28,5.79s.23,4,.36,6,.24,4,.44,6c.13,1.29.42,2.57.6,3.86s.38,2.77.52,4.16c.17,1.67.31,3.35.45,5,0,.38,0,.77.05,1.16,0,.77.13.89.89.91,1,0,2,0,3,0,1.81.06,3.63.16,5.44.2,1.6,0,3.21,0,4.82,0l6.17,0h2.87c.07-.1.14-.15.14-.2-.08-.9-.16-1.8-.27-2.69s0-1,.83-.91a2.93,2.93,0,0,1,.94.17.81.81,0,0,1,.47.88c0,.77,0,1.53,0,2.3a.49.49,0,0,0,.5.51c.27,0,.54,0,.81,0l6.08.13a15.67,15.67,0,0,0,2.84,0,15.28,15.28,0,0,1,2,.1c1.93,0,3.86-.15,5.79-.19,1.6,0,3.21,0,4.82,0,1.16,0,2.31-.11,3.47-.16l3.66-.18c1.57-.08,3.14-.23,4.72-.25,1.39,0,2.78.13,4.17.19.8,0,1.61.06,2.41.05,1.1,0,2.2-.07,3.3-.11,1.54-.06,3.09-.15,4.63-.16s2.79.09,4.19.09,2.8,0,4.19-.06l7.41-.15c1.81,0,3.63,0,5.44-.07,1.57-.06,3.14-.23,4.75-.35a2.17,2.17,0,0,0,.05-1.53c-.24-1.15-.11-1.37,1.12-1.67.92.84.86,2,.94,3.16a21.08,21.08,0,0,0,2.42.07c1.48-.12,3,.2,4.43-.14a.67.67,0,0,1,.26,0,21,21,0,0,0,5.58-.11c1.36-.13,2.73-.1,4.1-.09s2.68.07,4,.14c.83,0,1.65.14,2.48.21s1.84.2,2.76.22q2.81.08,5.62.06c.86,0,1.72-.17,2.57-.14,1.76.06,3.51.21,5.26.29a17.57,17.57,0,0,0,2.32-.06c1.81-.16,3.62-.38,5.43-.55.74-.07,1.49,0,2.23-.1,1-.08,2.07-.2,3.11-.29.42,0,.84,0,1.25-.09a31.62,31.62,0,0,1,6.46-.59c1.38,0,2.78-.31,4.17-.4s2.55-.06,3.83-.08c1,0,2-.06,2.95,0,1.69,0,3.37-.16,5.07,0a43.52,43.52,0,0,0,4.45,0h2.05c-.06-.73-.11-1.34-.15-1.95-.06-.86,0-.86.73-1.25a4.94,4.94,0,0,0,.48-.32c.11,0,.25.08.38.14.57.26.65.38.5.94a6.86,6.86,0,0,0,0,2.29,17.87,17.87,0,0,0,2.34.07,24.68,24.68,0,0,1,5.08.12,12.48,12.48,0,0,0,2.76,0c1.09-.12,2.2-.09,3.3-.12a1.21,1.21,0,0,1,.44.06,6,6,0,0,0,2.48.12c2.11-.11,4.23-.21,6.34-.22a26.79,26.79,0,0,0,4.26-.43c.6-.1,1,.1,1.06.6s-.52,1.22-.92,1.09c-1.16-.37-2.22.27-3.35.2a19.61,19.61,0,0,0-3.29,0c-1.15.12-2.3-.32-3.45.07-.36.12-.82-.08-1.23,0a43.14,43.14,0,0,1-6.3,0c-.77,0-1.55,0-2.32,0a6.77,6.77,0,0,1-.89,0,9.68,9.68,0,0,0-2.21,0c-1.12.11-2.25.09-3.37.12l-.61,0,.48,4.15c-1,.48-1.88,0-2-.95-.07-.65-.1-1.31-.16-2-.09-1.07-.27-1.19-1.33-1.16a27.61,27.61,0,0,1-4.37,0c-1.13-.15-2.24,0-3.36-.14a15.58,15.58,0,0,0-2.67.06c-.65,0-1.3-.09-1.94-.07s-1.42.13-2.13.19c-.44,0-.89,0-1.34,0-.92.07-1.83.19-2.75.25-1.62.1-3.25.15-4.87.27-1.45.11-2.9.3-4.35.45-2.45.24-4.9.6-7.36.67-1.7,0-3.35.46-5,.51a24,24,0,0,1-4.86-.18,16.74,16.74,0,0,0-2.21-.09c-.23,0-.46-.05-.7-.06a32.37,32.37,0,0,0-4.5.27c-.12,0-.24.07-.35,0a21.43,21.43,0,0,0-4.31-.29,8.8,8.8,0,0,1-1.14-.16,22.42,22.42,0,0,0-4.16-.29,2.75,2.75,0,0,1-.7-.13,4.44,4.44,0,0,0-1.94-.11,4.47,4.47,0,0,1-1.24,0,17.79,17.79,0,0,0-3.18.22c-1.51.1-3,.26-4.53.35-.91.05-1.83,0-2.74,0a.26.26,0,0,1-.09,0c-1.21-.47-2.46.14-3.68-.15A4.53,4.53,0,0,0,226.84,390.94Z"/><path d="M153,257.22l-1.45-.21c-.24,0-.47-.06-.71-.06-1.64-.05-3.28-.2-4.91-.12a15.91,15.91,0,0,0-3,.65,6.24,6.24,0,0,1-1.94.13,22.27,22.27,0,0,0-5.58.13,1.12,1.12,0,0,1-1.48-1,1.44,1.44,0,0,0-.18-.59,2.06,2.06,0,0,1-.23-1.78c.06-.44.28-.56.75-.53,1.07.08,2.13.14,3.2.2a.92.92,0,0,0,.44,0c1.2-.6,2.52-.4,3.78-.52,1.65-.17,3.33-.11,5-.16.32,0,.65-.11,1-.13a60.57,60.57,0,0,1,7.12-.2,7.62,7.62,0,0,0,2.2-.26,13.82,13.82,0,0,1,2.13-.18,42.39,42.39,0,0,1,6,.12,1.85,1.85,0,0,0,.93-.19,1.15,1.15,0,0,1,1.38.17,4.69,4.69,0,0,1,1.26,1.71c.31.6-.48,1.49-1.29,1.56l-6.74.62Z"/><path d="M144.31,242.89c.44-.35-.09-.71,0-1.18a2.53,2.53,0,0,1,.78-.17,12.78,12.78,0,0,0,3.71-.48,4,4,0,0,1,2.37.25c.44.18.73.72,1.13,1.13,0-.07.1-.19.17-.31a1.82,1.82,0,0,1,2.62-.7,6.18,6.18,0,0,0,1.87.47c.81.09,1.23.37,1.33,1.14s.15,1.6.26,2.4q.22,1.54.51,3.06c.12.65-.62,1.68-1.28,1.65-.23,0-.6-.17-.66-.35-.22-.6-.84-1-.79-1.76,0-.14-.17-.29-.31-.52a5.91,5.91,0,0,1-4.35-.17c-.17.59-.28,1.08-.45,1.54a1.3,1.3,0,0,1-.43.52c-.25.19-.57.31-.81.51a1,1,0,0,1-1.21.21c-.51-.25-.42-.65-.41-1.06a2.63,2.63,0,0,1,.05-.34,5.89,5.89,0,0,1-2.23-1,2.13,2.13,0,0,1,1.26-1,13,13,0,0,0,1.91-.74c.32-.13.28-.42.23-.69s-.16-.83-.65-.84a13.28,13.28,0,0,0-2.35.11c-1.21.19-1.74-.12-1.88-1.33,0-.3-.15-.43-.44-.42Zm10,1.07c-.65.15-.89.34-.91.75a1.2,1.2,0,0,0,.81,1.15c.46.14.63-.17.79-.44Zm1.8.19c-.46.2-.51.61-.67,1.14A1,1,0,0,0,156.11,244.15Z"/><path d="M144.7,404.74c-1.08,0-1.37-.33-1.51-1.6.48-.14,1-.3,1.48-.43a1.31,1.31,0,0,0,.76-1.48.45.45,0,0,0-.25-.23,5.44,5.44,0,0,0-1.47-.23c-1.34.11-1.64-.07-2-1.52a6.77,6.77,0,0,1,.79-.28c.4-.09.8-.14,1.2-.2.11,0,.24-.08.34,0a6.79,6.79,0,0,1,2.85,1.57,1.61,1.61,0,0,1,.45,1.71,3.65,3.65,0,0,0-.08.6l1.29.21c.12-.42.23-.81.36-1.19a1.41,1.41,0,0,1,.33-.61,5.26,5.26,0,0,1,2.16-.92,1.28,1.28,0,0,1,1.42.53.19.19,0,0,0,.06.07,5.05,5.05,0,0,1,1.94,2.25s.1,0,.22.09a1.56,1.56,0,0,0,.17-.47,3.45,3.45,0,0,1,.84-1.75,2,2,0,0,1,2-.46,1.57,1.57,0,0,0,.66.08,4.36,4.36,0,0,1,3.08.54c.25.16.52.29.78.43a2,2,0,0,1,.76,2.9,4.71,4.71,0,0,1-3.87,2.22,6.33,6.33,0,0,1-2-.29,2.68,2.68,0,0,1-2.13-2,3.29,3.29,0,0,1-2.4,1.51,4.48,4.48,0,0,1-2.18.16,3.08,3.08,0,0,1-2-2l-1.93.22c0,.49-.09,1-.14,1.47a2.88,2.88,0,0,1-.05.7c-.32.9-.94,1-1.58.32A2.06,2.06,0,0,1,144.7,404.74Zm14.13-3.1a1.91,1.91,0,0,1-.35.35,4.32,4.32,0,0,1-.57.23,1.42,1.42,0,0,0-.67,1.43,1,1,0,0,0,.85,1,3.28,3.28,0,0,0,3.38-1,4,4,0,0,0,.48-.85Zm-5.44,1.81-1.25-1.29c-.21-.22-.42-.51-.74-.33a1.65,1.65,0,0,0-.62.68,2.32,2.32,0,0,0-.12.87.78.78,0,0,0,1.1.83,11.26,11.26,0,0,0,1.09-.34A2.78,2.78,0,0,0,153.39,403.44Z"/><path d="M181.18,282.74c-.79,0-.84-.07-1.12-.83a36.42,36.42,0,0,0-2.4-5.12,9.81,9.81,0,0,1-.83-1.68,30.88,30.88,0,0,0-1.67-3.31c-.19-.4-.29-.83-.47-1.24-.33-.76-.69-1.51-1-2.28s-.59-1.49-.9-2.22c-.22-.51-.48-1-.72-1.51s-.59-1.29-.93-1.92-.82-1.51-1.28-2.24-.33-.92.38-1.16c.39-.14.79-.28,1.19-.4a.71.71,0,0,1,.94.45c.74,1.59,1.45,3.2,2.26,4.75a30.7,30.7,0,0,1,1.72,4.37,9.2,9.2,0,0,0,.67,1.46c.57,1,1.2,2,1.75,3.08.3.57.45,1.23.73,1.81.36.74.81,1.43,1.2,2.16a5.34,5.34,0,0,1,.39,1c.34,1.16,1,2.21,1.22,3.42C182.47,282.27,182.14,282.76,181.18,282.74Z"/><path d="M138.74,317.62c.93.74.93.74,1.07,2.12.39.14.6-.12.81-.38a2.16,2.16,0,0,1,2.39-.77,5.2,5.2,0,0,0,4-.56,10.73,10.73,0,0,1,2.07-.83,2.56,2.56,0,0,1,2.92.92.49.49,0,0,0,.13.11c.69,0,1.31,0,1.92-.11a3.1,3.1,0,0,0,1.53-.41,1.9,1.9,0,0,1,2.11.08,1.22,1.22,0,0,0,1.08.08,12.12,12.12,0,0,0,4-1.64,1.24,1.24,0,0,1,1.19-.09c1,.31,1.16.91.55,1.75-.12.17-.23.35-.34.52a1,1,0,0,1-1,.48,4,4,0,0,0-1.3.16c-1,.31-1.9.69-2.85,1a1.35,1.35,0,0,1-1.51-.18.88.88,0,0,0-.92-.15,5.52,5.52,0,0,1-2.28.22,1.47,1.47,0,0,0-.94.39c-.93.71-1.28.76-2.21,0-.35-.27-1-.33-.94-1a.75.75,0,0,0-.53-.17,4.34,4.34,0,0,0-1.21.53,2.73,2.73,0,0,1-1.4.5,11.32,11.32,0,0,1-3.91-.07c-.2-.06-.53.18-.74.34s-.63.65-1,.88a2.52,2.52,0,0,1-3.79-1.17,1.81,1.81,0,0,1,.55-2.41A2.48,2.48,0,0,1,138.74,317.62Z"/><path d="M135.35,263.05c.19,0,.33,0,.47.05,1.06.2,1.36.44,1.12,1.55a4.27,4.27,0,0,0,.12,1.49.54.54,0,0,0,.32.38c.62.09.8.53.94,1a5.14,5.14,0,0,0,.29.67,1.89,1.89,0,0,0,1.74-.39c.67-.59,1.4-.21,2,.15a1.1,1.1,0,0,0,1.38,0c.49-.34,1-.62,1.47-1s.89-.68,1.53-.42a.9.9,0,0,0,.76-.1,1.81,1.81,0,0,1,1.62-.21,22,22,0,0,1,2.43.55c.92.3,1.88.13,2.81.38a2.62,2.62,0,0,1,.47,1.82.87.87,0,0,1-.58.92,1,1,0,0,1-1.06-.26c-.18-.19-.45-.34-.55-.57-.43-.9-1.31-1-2.09-1.19a2.76,2.76,0,0,0-2.68.82c-.53.52-.56.53-1.15.06l-.34-.24a7.64,7.64,0,0,0-1.22,1.16c-.18.26-.07.73-.11,1.25a2.81,2.81,0,0,0-.31.24.58.58,0,0,1-.87,0c-.55-.45-1.1-.9-1.69-1.37-.28.17-.54.36-.83.5a.71.71,0,0,1-1-.16,1.71,1.71,0,0,0-2.75.66c0,.06,0,.12,0,.18-.1.37-.16.85-.65.84s-1.1-.07-1.37-.66a2.71,2.71,0,0,1-.23-.76,3.27,3.27,0,0,0-.51-1.57,1.58,1.58,0,0,1,.08-1.75,1.34,1.34,0,0,0,.14-1.09A4.42,4.42,0,0,1,135.35,263.05Z"/><path d="M206.09,242.8c-1.16,1.15-2.25,2.23-3.35,3.3a4.35,4.35,0,0,1-.83.63c-1.38.8-2.48,2-4,2.58a3.33,3.33,0,0,0-1.33.87,7.15,7.15,0,0,1-1.9,1.44A6.79,6.79,0,0,0,193,253a11.84,11.84,0,0,1-2.62,2.1,11.76,11.76,0,0,0-1.84,1.67c-.47.45-.92.93-1.43,1.33s-.7.26-1-.2c-.75-1.07-.9-.94.25-2a15.07,15.07,0,0,0,1.09-1.26A3.23,3.23,0,0,1,188,254a40.47,40.47,0,0,0,4.58-3.68,20.16,20.16,0,0,1,4.21-3,17.06,17.06,0,0,0,4.37-3.2c.51-.5,1.09-.91,1.64-1.37a2.19,2.19,0,0,0,.39-.37c.18-.25.21-.67.64-.64.61,0,1.29-.15,1.81.31A2.53,2.53,0,0,1,206.09,242.8Z"/><path d="M185.24,239.23c1.19-1,2.32-2,3.39-3a9.13,9.13,0,0,0,1.25-1.59c.37-.54.64-1.14,1.34-1.37.17-.06.31-.26.43-.43.35-.51.65-1.07,1-1.56a6.39,6.39,0,0,1,.85-.74c.68-.61,1.34-1.25,2-1.85.49-.42,1-.81,1.51-1.21.2-.16.48-.28.6-.49a8.5,8.5,0,0,1,1.85-2.14,2,2,0,0,0,.51-.61,1.58,1.58,0,0,1,1.32-.92c.61-.11,1.23-.17,1.81-.24a1.32,1.32,0,0,1-.34,2c-1,.81-1.87,1.73-2.79,2.61-.36.35-.71.71-1.06,1.07-.8.79-1.58,1.59-2.4,2.35-.34.32-.81.52-1.14.85-.75.76-1.43,1.59-2.17,2.35a31.74,31.74,0,0,0-2.52,3,10,10,0,0,1-1.18,1.08,14.84,14.84,0,0,0-1.88,1.87c-.64.88-1.23.69-1.93-.1A4.46,4.46,0,0,1,185.24,239.23Z"/><path d="M186.09,249.08a4.18,4.18,0,0,1-.14-.71,1.52,1.52,0,0,1,.12-.67,12.49,12.49,0,0,0,.67-1.24,1.77,1.77,0,0,1,1.08-1.12,9,9,0,0,0,2-1.29,28.2,28.2,0,0,0,3.31-3.18c.26-.28.64-.44.91-.71.75-.75,1.46-1.54,2.22-2.28a12.88,12.88,0,0,1,1.55-1.33,5.84,5.84,0,0,0,1.93-2.29,1.43,1.43,0,0,1,.25-.44c.47-.44,1-.86,1.45-1.28a1.44,1.44,0,0,1,.51-.28c.23-.06.47-.05.71-.1a1,1,0,0,1,1.17.36,1.34,1.34,0,0,1-.09,1.43c-.58.59-1.2,1.15-1.79,1.73s-.95,1-1.42,1.46a2.13,2.13,0,0,1-.31.32,16.66,16.66,0,0,0-3.32,3.06c-.68.78-1.54,1.41-2.26,2.16a25.8,25.8,0,0,1-2.8,2.72c-.54.41-1.09.81-1.63,1.22a14,14,0,0,0-1.53,1.2,2.26,2.26,0,0,0-.47,1,1,1,0,0,1-1.5.68C186.51,249.41,186.33,249.25,186.09,249.08Z"/><path d="M202.12,215.48l1.13.59a2.42,2.42,0,0,1-1.18,2.52,1.08,1.08,0,0,0-.21.17c-1.5,1.48-3.22,2.71-4.79,4.1-.8.71-1.55,1.48-2.36,2.18-.47.4-1,.68-1.53,1.06-.84.65-1.65,1.35-2.5,2-.51.4-1.09.72-1.58,1.14s-.89,1-1.35,1.42a2.37,2.37,0,0,1-.55.45,1,1,0,0,1-1.3-.18c-.51-.72-.48-1.09,0-1.63.37-.38.66-.83,1-1.24.13-.16.25-.38.42-.45a11.68,11.68,0,0,0,3-2.21c1.54-1.35,3.48-2.22,4.74-3.9a.48.48,0,0,1,.12-.13c1.42-.85,2.43-2.19,3.74-3.17a1.65,1.65,0,0,0,.38-.37,3.51,3.51,0,0,1,1.17-1.05A12.3,12.3,0,0,0,202.12,215.48Z"/><path d="M140.65,290.53a4.1,4.1,0,0,0,.65-2.7,2.08,2.08,0,0,1,2.62,1.26c.22.76.28.85,1.11.89a3.92,3.92,0,0,0,2.59-.35c.11-.08.35,0,.51,0a6.54,6.54,0,0,1,.93.33.93.93,0,0,0,1.28-.36l-.26-.79a1.46,1.46,0,0,1,2.06.05,4.16,4.16,0,0,0,1.42.88c.47.15.85.81.74,1.1a1.41,1.41,0,0,1-1.56.53,4.08,4.08,0,0,1-.53-.35,1,1,0,0,0-.33.14,3.11,3.11,0,0,1-3.18.57,7,7,0,0,0-2.19-.08c-.65,0-1.3.16-1.94.12a8,8,0,0,1-1.55-.42c0,.06-.12.19-.22.3a1.75,1.75,0,0,1-2.81.3c-.25-.2-.53-.37-.9-.63-.24.36-.49.67-.69,1-.31.54-.55,1.12-.88,1.65a2.87,2.87,0,0,1-.73.76.9.9,0,0,1-1.15,0,2.81,2.81,0,0,1-1.33-2.55c0-.61.26-.84.78-.58a1.38,1.38,0,0,0,2.13-.71,6.54,6.54,0,0,1,1-1.14,1.09,1.09,0,0,1,1.46-.1C140,289.91,140.3,290.21,140.65,290.53Z"/><path d="M144.29,242.86a22.74,22.74,0,0,0,.46,3,8.56,8.56,0,0,1,.14,2.56,16.51,16.51,0,0,1-.3,2.12.66.66,0,0,1-.61.66c-.23,0-.46.14-.69.15a1,1,0,0,1-.56-.16c-.35-.26-.66-.57-1-.9l.17-.71a1.32,1.32,0,0,0-1.33-.5,1.1,1.1,0,0,1-1.23-.92.77.77,0,0,1,.57-.93,3,3,0,0,1,.5-.19c.85-.15,1.1-.68,1-1.46-.77-.77-1.76-.58-2.69-.54-.19,0-.38.25-.56.39s-.56.33-.88,0-.43-.48-.21-.85a1.93,1.93,0,0,0,0-2.1c-.28-.49-.09-.75.49-.84a1.49,1.49,0,0,1,.53-.06c1.09.25,2.12-.21,3.17-.28a7.49,7.49,0,0,1,1.75.15c.2,0,.37.26.53.42.3.32.58.66.87,1Z"/><path d="M204,201.21a2.32,2.32,0,0,1-.89,1.44c-2.08,1.33-4.18,2.66-6.12,4.18a56.39,56.39,0,0,0-5.9,5c-.66.68-1.48,1.2-2.12,1.89a9.33,9.33,0,0,0-1,1.73,7,7,0,0,1-.46.85.71.71,0,0,1-1,.22.82.82,0,0,1-.47-1,9.17,9.17,0,0,1,3.82-5.4,2.72,2.72,0,0,0,.44-.42c.12-.13.19-.34.34-.41.63-.27,1-.86,1.45-1.27a9.9,9.9,0,0,1,1.88-1.32,6.61,6.61,0,0,0,1.45-1.29c.26-.24.55-.43.83-.64s.68-.57,1.06-.8a18.61,18.61,0,0,1,2-1.14,2.72,2.72,0,0,0,1.28-1,9.15,9.15,0,0,1,1.22-1.4,1.66,1.66,0,0,1,1.61-.08A3.91,3.91,0,0,1,204,201.21Z"/><path d="M185.24,263.75c.47-.35.87-.69,1.31-1a9.75,9.75,0,0,0,1.92-1.41,10.44,10.44,0,0,1,1.69-1.27c1-.67,2-1.3,3-2a6.93,6.93,0,0,0,.75-.76,3.09,3.09,0,0,1,.86-.75c1.76-.68,3-2.06,4.48-3.15.26-.2.52-.4.8-.57a4.25,4.25,0,0,0,1.57-1.39,5.83,5.83,0,0,1,1-1.09,2.28,2.28,0,0,1,2.13.07,5.72,5.72,0,0,1,.53.47l-.37.83c0,.08,0,.23-.09.24-.92.18-1.14,1.22-2,1.55a10.19,10.19,0,0,0-2,1.3c-.44.3-.86.63-1.29.95a29.8,29.8,0,0,0-2.92,2.18,36.49,36.49,0,0,1-5.29,3.6,36.53,36.53,0,0,0-3.28,2.73c-.32.27-.62.56-.94.82A.66.66,0,0,1,186,265,12.11,12.11,0,0,1,185.24,263.75Z"/><path d="M204,257.07c.84,0,1.34.58,1.07,1.23a1.73,1.73,0,0,1-.46.51c-.47.44-.93.89-1.42,1.31-.31.27-.65.52-1,.78-1.41,1.13-2.82,2.25-4.23,3.39a11.16,11.16,0,0,0-1.52,1.37,7.44,7.44,0,0,1-1.45,1.14c-1.29.94-2.59,1.88-3.86,2.84-1.12.84-2.2,1.72-3.32,2.56a9,9,0,0,1-1.19.78.61.61,0,0,1-1-.51,1.51,1.51,0,0,1,.49-1.27c1.36-1.06,2.7-2.14,4-3.28a10.91,10.91,0,0,1,2.44-1.73,6.5,6.5,0,0,0,1.27-1.11,54.92,54.92,0,0,0,4.26-3.86,5.5,5.5,0,0,1,1.25-.85,5.28,5.28,0,0,0,1.83-1.6A3.76,3.76,0,0,1,204,257.07Z"/><path d="M186.94,223.42a1.84,1.84,0,0,1-1.49-1.57.69.69,0,0,1,.28-.41c1.26-.85,2.23-2,3.45-2.91,1-.72,2.06-1.35,3.09-2a4.18,4.18,0,0,0,.78-.58c.56-.6,1.09-1.24,1.63-1.85a.64.64,0,0,1,.28-.21,5.53,5.53,0,0,0,2.16-1.35,12,12,0,0,0,1.1-1.24,3.75,3.75,0,0,1,.79-.84,6.14,6.14,0,0,0,2.18-2.53,1.88,1.88,0,0,1,1.52-1,.93.93,0,0,1,1,.38,1,1,0,0,1,.12,1.16c0,.07-.07.18-.14.23-1.14.82-1.66,2.21-2.89,3a12.89,12.89,0,0,0-2,2,3,3,0,0,1-.68.54,15.58,15.58,0,0,0-3.42,2.69,10.6,10.6,0,0,1-1,.89c-1.67,1.28-3.38,2.52-5,3.83a2.82,2.82,0,0,0-.87,1.22C187.66,223.34,187.28,223.35,186.94,223.42Z"/><path d="M185.23,198.33a14.34,14.34,0,0,1,.72-1.25c.32-.46.71-.88,1.07-1.31a1.1,1.1,0,0,1,.25-.25,19.22,19.22,0,0,1,2.77-1.6,9.71,9.71,0,0,0,3.62-2.64,19.4,19.4,0,0,1,2.9-2.34,3,3,0,0,0,.44-.31c.5-.54,1-1.13,1.49-1.64a17.61,17.61,0,0,1,1.59-1.24,2,2,0,0,0,.91-1.14,1.68,1.68,0,0,1,2-.86c.65.17.85.61.45,1.13a10.1,10.1,0,0,1-2.48,2.61,10.45,10.45,0,0,0-1.37,1.27c-.85.79-1.7,1.57-2.55,2.35a16.33,16.33,0,0,0-1.66,1.49,11.56,11.56,0,0,1-3.06,2.13,26.53,26.53,0,0,0-4.4,3.2,2.52,2.52,0,0,0-.55,1c-.22.65-.48,1-.87.94a1.59,1.59,0,0,1-1.17-1.11C185.25,198.66,185.25,198.57,185.23,198.33Z"/><path d="M185.38,279.16l3.45-1.88c-.1-.58.35-1,.86-1.37.34-.25.68-.48,1-.71,1.22-.79,2.47-1.54,3.66-2.38a16.24,16.24,0,0,0,1.32-1.32c.62-.55,1.26-1.08,1.92-1.58s1.32-.92,2-1.41a4.53,4.53,0,0,0,.61-.73,2.36,2.36,0,0,1,.41-.46c.85-.59,1.7-1.19,2.59-1.73a1.64,1.64,0,0,1,1.67,0,2.81,2.81,0,0,1-.38,2c-.53-.35-.89-.22-1.3.28a14.84,14.84,0,0,1-2.58,2.14c-1.28,1-2.78,1.69-3.83,3a3.93,3.93,0,0,1-.59.54q-1.73,1.39-3.48,2.76c-.18.14-.42.21-.62.34-.39.26-.78.53-1.16.81-.19.14-.37.28-.55.43s-.45.25-.55.44a9.94,9.94,0,0,1-2.1,2.17,1.75,1.75,0,0,1-.77.41.89.89,0,0,1-1.1-.63C185.69,279.89,185.56,279.6,185.38,279.16Z"/><path d="M203.43,193.56a4,4,0,0,1-.56.75c-1.51,1.29-3,2.58-4.58,3.83a6,6,0,0,1-1.53.89,10.54,10.54,0,0,0-2.26,1.73,22.26,22.26,0,0,0-1.94,1.71c-.52.49-1,1-1.49,1.53a20,20,0,0,1-3.18,2.69c-.34.26-.74.43-1.06.15a2.36,2.36,0,0,1-.72-1.16c-.09-.42.29-.75.73-.88a4.46,4.46,0,0,0,2.29-1.9,3,3,0,0,1,1.29-1.19,2.22,2.22,0,0,0,.77-.6c.53-.6,1.4-.78,1.81-1.51.07-.13.19-.23.25-.37a2.26,2.26,0,0,1,1.81-1.4,2.43,2.43,0,0,0,1.16-.6,9.74,9.74,0,0,1,2.28-1.69c.15-.07.24-.25.36-.37a17.84,17.84,0,0,1,1.72-1.78,2.67,2.67,0,0,1,1.46-.51A1.35,1.35,0,0,1,203.43,193.56Z"/><path d="M233,400.89a6.79,6.79,0,0,0,1-1.19,1.5,1.5,0,0,1,.75-.68c1.09-.56,1.43-.48,2.11.56a6.13,6.13,0,0,0,.72.9,2.24,2.24,0,0,1,.34,3c-.42.65-1.18.73-1.84,1a4,4,0,0,1-.8.09,2,2,0,0,1-2.36-1.41l-.21-.56c-.6.4-1.13.83-1.72,1.15a2.66,2.66,0,0,1-2.16.24,2.26,2.26,0,0,1-1.51-2.3,5.28,5.28,0,0,1,.41-2.07c.38-.93,1.29-1,2.13-.9a9.16,9.16,0,0,1,1.74.38.94.94,0,0,1,.43.39C232.39,399.89,232.68,400.36,233,400.89Zm-3-.72a2.14,2.14,0,0,0-.83,1.88c0,.15.31.39.38.37a6.72,6.72,0,0,0,1.27-.65,4.72,4.72,0,0,0,.7-.77Zm4.76,2.74a12,12,0,0,0,1.18-.29.77.77,0,0,0,.52-.84,1.17,1.17,0,0,0-.68-1,.46.46,0,0,0-.39.09A2.4,2.4,0,0,0,234.81,402.91Z"/><path d="M317.72,401.38c-.57.5-1.06,1-1.6,1.39a4.2,4.2,0,0,1-.94.49.56.56,0,0,1-.43,0c-.63-.37-1.41-.64-1.68-1.37a12.12,12.12,0,0,1-.59-2.51,1.25,1.25,0,0,1,1.32-1.43,2.67,2.67,0,0,1,2.05.67,16.66,16.66,0,0,0,1.54,1.06c.19-.37.37-.66.51-1,.22-.49.48-.89,1.13-.8a.69.69,0,0,0,.45-.2,1.13,1.13,0,0,1,1.57-.09,27.28,27.28,0,0,1,2.2,2.08,1.27,1.27,0,0,1-.05,1.91c-1.66,1.8-2.82,1.75-4.8.57C318.13,402,318,401.7,317.72,401.38Zm2.7-1.83c-.44-.21-.69,0-.91.41a.89.89,0,0,0,0,1.07.69.69,0,0,0,.49.28,5.51,5.51,0,0,0,1.38-.28c.51-.19.56-.64.16-1.05A1.12,1.12,0,0,0,320.42,399.55Zm-4.6.94a1.72,1.72,0,0,0-1.4-.54c0,.51-.15,1.06.38,1.25S315.61,401.05,315.81,400.49Z"/><path d="M197.35,170.56c.54.08,1,.14,1.41.23a.53.53,0,0,1,.43.68,2.36,2.36,0,0,1-.67,1.41,4.83,4.83,0,0,1-1.77,1.15,1.52,1.52,0,0,0-.52.33l-2.71,2.28a1.33,1.33,0,0,0-.26.24,12.55,12.55,0,0,1-3,2.61,5,5,0,0,0-1,.9,10.13,10.13,0,0,1-2.23,2.17,9.7,9.7,0,0,0-.93.95c-.25.24-.46.58-.9.39a.9.9,0,0,1-.52-1c0-.27.09-.53.11-.8s.2-.45.47-.57a9.26,9.26,0,0,0,1.55-.83,1.66,1.66,0,0,0,.58-.86,3,3,0,0,1,1.82-1.94,20.43,20.43,0,0,0,1.88-1.13c0-.49.42-.73.67-1.06a3.12,3.12,0,0,1,.6-.62c.86-.67,1.74-1.32,2.62-2,.38-.28.77-.55,1.17-.8A2.62,2.62,0,0,0,197.35,170.56Z"/><path d="M148.23,278c.56.35,1,.15,1.52-.18a3.34,3.34,0,0,1,3.61,0,7.17,7.17,0,0,0,1.56.64,2.41,2.41,0,0,0,2.06-.23l-.34-1.22a2.43,2.43,0,0,1,.52-.27,7.68,7.68,0,0,1,5.32.87c.25.12.52.32.37.61a1,1,0,0,1-.61.44,1.68,1.68,0,0,1-.78-.09,3,3,0,0,0-1.84.16.88.88,0,0,0-.44.29c-.58.93-1.61,1-2.5,1.19a6.05,6.05,0,0,1-3.72-.56l-.57-.19.69.9a2.24,2.24,0,0,1-2.88.46,1.51,1.51,0,0,0-.68-.36,2,2,0,0,1-1.32-.83A1.14,1.14,0,0,1,148.23,278Z"/><path d="M198.83,177.45c.3,0,.57.06.83.12.59.13.79.59.41,1.07a17.83,17.83,0,0,1-1.47,1.55c-.66.65-1.34,1.27-2,1.9a3.21,3.21,0,0,1-.53.47,18,18,0,0,0-3.1,2.67c-1,.89-1.84,1.85-2.79,2.74-.56.53-1.19,1-1.76,1.49s-1.06,1-1.57,1.58-.71.59-1.11.25c-.65-.55-.8-1-.37-1.51a16.14,16.14,0,0,1,1.7-1.64c.7-.58,1.47-1.09,2.2-1.65a1.43,1.43,0,0,0,.26-.35,4.92,4.92,0,0,1,1.59-1.54,1.76,1.76,0,0,0,.53-.56,3.5,3.5,0,0,1,1.8-1.52,2.45,2.45,0,0,0,1.19-.89,4.83,4.83,0,0,1,1-.82c.18-.14.48-.24.53-.42.21-.69.82-1,1.33-1.35a1.28,1.28,0,0,0,.63-1A.65.65,0,0,1,198.83,177.45Z"/><path d="M184.86,363.51c-.94-.61-1-.83-.56-2.1,1.21,0,2.12-.83,3.14-1.42s2.14-1.13,3.2-1.72a7.43,7.43,0,0,0,1-.74,4.13,4.13,0,0,1,1.89-1.14c.19,0,.35-.21.54-.3l3-1.47c.13-.06.31-.07.41-.16a19.28,19.28,0,0,0,2-1.92,1.78,1.78,0,0,1,2.45-.65c0,.22,0,.53-.14.7a12.51,12.51,0,0,1-2.92,3,1.5,1.5,0,0,1-1.08.3,1.54,1.54,0,0,0-.93.19c-1.22.72-2.42,1.47-3.61,2.23-.25.16-.42.42-.67.58a16.56,16.56,0,0,1-3.34,1.91,14,14,0,0,0-2.6,1.52C186,362.73,185.45,363.13,184.86,363.51Z"/><path d="M103.33,278a2.33,2.33,0,0,1-1.71.9c-.67.16-1.34.27-2,.45a2.74,2.74,0,0,0-1.41.81l1,.33a4.64,4.64,0,0,1,2.17,1.33,2.46,2.46,0,0,1-.21,3.51,4.93,4.93,0,0,1-.82.68,1.57,1.57,0,0,1-2.31-.77c-.18-.54-.14-.62.43-.85.22-.08.5-.14.61-.31.24-.36.62-.86.52-1.15a1.51,1.51,0,0,0-1.29-.79,7.78,7.78,0,0,1-1.4-.21,1.3,1.3,0,0,1-.71-1.6,2.35,2.35,0,0,0,.19-.68,1.81,1.81,0,0,1,1.35-1.7,10,10,0,0,1,1.73-.4c.67-.14,1.33-.29,2-.37A2,2,0,0,1,103.33,278Z"/><path d="M136.1,309a2.9,2.9,0,0,1,2.44-.36c.23,0,.46.34.64.57a2.77,2.77,0,0,1,.27.66,9.28,9.28,0,0,0,1-.64,2.18,2.18,0,0,1,2.35-.29,2.63,2.63,0,0,1,.87.46,1.69,1.69,0,0,0,1.85.24,3,3,0,0,1,2,0,1.6,1.6,0,0,0,.67,0c.65-.08,1.29-.23,1.94-.27.87,0,1.38.56,1.4,1.6a1.81,1.81,0,0,1-1.84.21,1.39,1.39,0,0,0-1.68.35,1.13,1.13,0,0,1-1.33.16,5,5,0,0,0-1-.25,8.17,8.17,0,0,1-2.68-.6,1.27,1.27,0,0,0-1.48.16,4.35,4.35,0,0,1-1.51.72,2.39,2.39,0,0,1-2.39-.82A4.9,4.9,0,0,1,136.1,309Z"/><path d="M107.85,285a3.07,3.07,0,0,1-2.75-1.44,3.71,3.71,0,0,1-.51-3.72,4.34,4.34,0,0,1,1.73-1.75,1.16,1.16,0,0,1,1.27.14,11.36,11.36,0,0,1,2.78,2.06,4.77,4.77,0,0,1,.61,1.43,1.6,1.6,0,0,1,.08.6,1.37,1.37,0,0,1-.12.58c-.18.33-.41.64-.61,1-.34.56-1,.66-1.48.92A3.53,3.53,0,0,1,107.85,285Zm-1.41-3.19c.09.71.33,1.12.82,1.25a1.38,1.38,0,0,0,1.47-.58,1.8,1.8,0,0,0-1.12-2.54.53.53,0,0,0-.45.19C106.9,280.64,106.68,281.21,106.44,281.77Z"/><path d="M221.72,401.43a7.48,7.48,0,0,1-.9-2,2.27,2.27,0,0,1,.63-1.88.92.92,0,0,1,.57-.15c.41,0,.83.05,1.23,0a2.16,2.16,0,0,1,2.1,1.07,1.14,1.14,0,0,1,.11.68,5.78,5.78,0,0,1-.16.83c.35.38.67.71,1,1.07a1.32,1.32,0,0,1,0,2,8.66,8.66,0,0,1-2.47,1.68,1.84,1.84,0,0,1-2-.56c-.84-1.16-.94-1.82-.1-2.7C221.73,401.45,221.74,401.38,221.72,401.43Zm3.57.2c-.39,0-.66-.08-.84,0-.62.32-1.38.49-1.76,1.46a5,5,0,0,1,1.26-.29C224.69,402.86,224.92,402.39,225.29,401.63ZM223,399.82c.46.06.63-.29.81-.56a.44.44,0,0,0-.1-.43.47.47,0,0,0-.45,0C223.07,399.14,222.83,399.43,223,399.82Z"/><path d="M165.18,298.47l.36,1.1a3.4,3.4,0,0,1-2.15.46,14.09,14.09,0,0,0-1.68-.09,6.23,6.23,0,0,1-1.2-.18c-.34-.1-.56,0-.61.3-.09.49-.27.86-.81.9a1.27,1.27,0,0,1-1.3-.59s-.1-.06-.15-.09a1.16,1.16,0,0,1-1.69.67,2.51,2.51,0,0,0-2.44.21c-.56.37-2-.44-2.11-1.11-.06-.45.09-.68.53-.76,1.08-.19,2.17-.35,3.25-.55a1.29,1.29,0,0,1,1.23.33,3.62,3.62,0,0,0,.7.42c.45-.45.84-.89,1.28-1.27a2.12,2.12,0,0,1,2.47-.39,10.42,10.42,0,0,0,2,.55.89.89,0,0,0,.61-.05A1.57,1.57,0,0,1,165.18,298.47Z"/><path d="M138,300.25c-.17,0-.14,0-.11,0,1.73-.75,3.49-.19,5.23,0a2.09,2.09,0,0,0,1-.11,3.47,3.47,0,0,1,3.69.87.7.7,0,0,1-.1,1.25c-.74.41-.9.66-1.56-.18-.35-.44-.62-.45-1.08-.15-.07,0-.14.11-.21.17-1,.81-1.06.83-2.11.11a1.85,1.85,0,0,0-1.77-.28,1.87,1.87,0,0,1-1.3,0,1.78,1.78,0,0,0-1.1.12,2.58,2.58,0,0,1-3-.55,1.48,1.48,0,0,1,0-2.33.77.77,0,0,1,.71-.1A20.43,20.43,0,0,1,138,300.25Z"/><path d="M198.27,305l-1.8-1.06-.1-1c2.5-2.12,2.36-2.85,2.11-5.17-.56.28-1,.93-1.77.64-.15-.41-.64-.84-.21-1.34a2,2,0,0,1,1.79-.83c.59.1,1.09.4.8,1.22l1.67-.33c.42.55.77,1,.51,1.74a2,2,0,0,0,0,1,3.47,3.47,0,0,1-1,2.83C199.64,303.51,198.95,304.23,198.27,305Z"/><path d="M137.44,249.54c0,.36-.18.57-.5.73-.5.24-1,.51-1.48.74s-1.14-.34-1.16-1,0-1.06,0-1.6a7.35,7.35,0,0,0-.34-2.53,11.5,11.5,0,0,1-.61-2.59,11.65,11.65,0,0,0-.21-1.71c-.11-.44.15-.73.58-.66s1.14.22,1.38.84c.36.91.76,1.81,1,2.75.45,1.54.82,3.1,1.22,4.65C137.41,249.27,137.42,249.39,137.44,249.54Z"/><path d="M310.7,399.2l-.56.3c.3.81,0,1.7.5,2.5.27.43-.14,1.36-.59,1.64a.72.72,0,0,1-1.07-.28c-.35-.64-.59-1.34-.93-2.13a1.06,1.06,0,0,0-.35-.05,3,3,0,0,1-2.37-1,5.29,5.29,0,0,1-.91-1.42c-.29-.6-.09-1,.55-1.12a11.91,11.91,0,0,1,3.89-.29A2,2,0,0,1,310.7,399.2Zm-4.2-.19c.54.74,1.08.37,1.53.41.09,0,.2-.23.3-.35-.13-.1-.26-.29-.38-.28C307.52,398.82,307.1,398.91,306.49,399Z"/><path d="M142.78,279.47a3.39,3.39,0,0,0,.38-.29c.61-.66.83-.71,1.6-.32a1.18,1.18,0,0,1,.77,1.5c-.11.67-.18,1.35-.29,2.14-1.27.18-2.51.95-3.93.48a5,5,0,0,1-1.17-.58,4.38,4.38,0,0,1-1.24-1.69.63.63,0,0,1,.27-.92,1.49,1.49,0,0,0,.23-.13A2.29,2.29,0,0,1,142.78,279.47Z"/><path d="M200.88,340.25a.86.86,0,0,1,.83.63c.15.48.05,1.14-.31,1.27-.73.26-1.22.88-1.94,1.17a5.76,5.76,0,0,0-1.75,1.35,12.56,12.56,0,0,1-3.06,1.94c-.34.18-.68.36-1,.56s-.78.54-1.18.77a.78.78,0,0,1-1.18-.32.94.94,0,0,1,.29-1.26c1-.57,1.92-1.17,2.9-1.7a8.9,8.9,0,0,0,3.16-2.54,1.25,1.25,0,0,1,.53-.45,3.32,3.32,0,0,0,1.37-.93C199.8,340.43,200.42,340.4,200.88,340.25Z"/><path d="M105.32,188.12c.47-.22.84.1,1.23.38.21.16.43.32.65.46a2.94,2.94,0,0,1,.09,4.49c-.29.17-.68.44-1,.36-1.19-.31-2.45-.46-3.22-1.68a2.71,2.71,0,0,1-.08-2.86,2.07,2.07,0,0,1,2-1.16Zm.35,1.66a1.54,1.54,0,0,0-.69,1.69.57.57,0,0,0,1,.28C106.68,191,106.61,190.43,105.68,189.77Z"/><path d="M201,327.17c-.19.29-.38.46-.41.64-.12.86-.85,1.08-1.45,1.44a6.63,6.63,0,0,0-.94.62,13.7,13.7,0,0,1-2.79,2,16.21,16.21,0,0,0-1.68,1,1.2,1.2,0,0,0-.5.58c-.2.74-.73.86-1.39.85a1.32,1.32,0,0,1-.21-.27c-.51-1.2-.46-1.38.59-2.24.21-.17.42-.33.63-.49,1.92-1.39,3.84-2.77,5.74-4.17a2.82,2.82,0,0,0,.51-.6c.46-.6.73-.66,1.3-.19A4.84,4.84,0,0,1,201,327.17Z"/><path d="M183.73,300.7a1.54,1.54,0,0,1-1.49-.52,8.86,8.86,0,0,1-.79-1.12,6.71,6.71,0,0,1-1-3.2,4,4,0,0,1,1.09-2.66,2,2,0,0,1,1.91-.34,1,1,0,0,1,.43,1.54,2.6,2.6,0,0,0-.48,2.65,3,3,0,0,0,.43.75,14.8,14.8,0,0,1,1,1.77c.31.75,0,1.11-.8,1.14Z"/><path d="M200.55,335.93a8.43,8.43,0,0,1-.9.92,17.69,17.69,0,0,1-1.75,1.16c-.66.39-1.38.69-2,1.08-1,.61-2.06,1.23-3.05,1.9a9.74,9.74,0,0,0-1.23,1.23c-.5.12-.85-.39-1.2-.8a1,1,0,0,1,.33-1.24,10.67,10.67,0,0,1,2.81-1.69,2.72,2.72,0,0,0,1-.59,12.54,12.54,0,0,1,3.06-2c.31-.13.52-.47.79-.68a3.91,3.91,0,0,1,.89-.58c.67-.27,1.15.06,1.25.79C200.53,335.65,200.54,335.83,200.55,335.93Z"/><path d="M138.68,278.41a8.38,8.38,0,0,1-.37,1.4,27.79,27.79,0,0,1-1.37,2.71c-.4.69-.75.79-1.3.56-.86-.36-1.17-.84-1-1.6s.22-1.46.29-2.2c0-.18-.14-.38-.19-.57a4.14,4.14,0,0,1-.23-1.2,1.23,1.23,0,0,1,1.61-1.08c.54.15,1.08.33,1.61.52A1.43,1.43,0,0,1,138.68,278.41Z"/><path d="M192.88,361.7a4.59,4.59,0,0,1,.64-.2c.69-.11,1.19,0,1.1.89-.06.61,0,1.24-.1,1.85a1.13,1.13,0,0,0,.5,1.26c-.53,1-.08,1.93.1,2.86s.57,1.79.83,2.7a3.8,3.8,0,0,1,.08,1.05c0,.35-.12.63-.55.68s-.7,0-.88-.39a8.59,8.59,0,0,1-.54-1,6.31,6.31,0,0,0-.68-1.89,1.49,1.49,0,0,1-.15-1.1,2.59,2.59,0,0,0-.11-1.3,7.14,7.14,0,0,1-.26-3.25c0-.21.14-.47.05-.6C192.59,362.74,192.8,362.27,192.88,361.7Z"/><path d="M192.41,353.71a1.8,1.8,0,0,1,1.22-2.15,12.33,12.33,0,0,0,1.57-1c.51-.35,1-.77,1.51-1.09s.95-.34,1.35-.62a11.56,11.56,0,0,0,1.75-1.48c.67-.7,1.1-.87,1.84-.5.46.22.59.42.34.83s-.38,1.22-1.2,1.27c-.17,0-.31.34-.5.46-.73.46-1.48.87-2.2,1.35-1.43,1-3.08,1.53-4.41,2.64C193.32,353.69,193,354,192.41,353.71Z"/><path d="M158.22,291.24c-.62.48-1.12.89-1.64,1.26a1.14,1.14,0,0,1-.58.18c-.51,0-.71-.18-.66-.7a2.07,2.07,0,0,0,0-1.3c-.06-.11.12-.46.27-.56a4.45,4.45,0,0,1,3-.89c.91.14,1.57-.45,2.33-.77.11,0,.16-.29.22-.44.2-.51.4-.6,1-.51a1.82,1.82,0,0,1,1.13.65c.4.48.41.78-.09,1.1a24.48,24.48,0,0,0-3.1,1.91A2.46,2.46,0,0,1,158.22,291.24Z"/><path d="M102.4,191.27a5.18,5.18,0,0,1-.5,1.06,3.14,3.14,0,0,1-3.47.94A.78.78,0,0,1,98,193a4.1,4.1,0,0,1-.78-2.13c0-.46-.14-.93-.16-1.4,0-.79.25-1,1-.88a.69.69,0,0,0,.78-.23.83.83,0,0,1,.72-.16,2.35,2.35,0,0,1,1.5.89c.25.4.59.75.84,1.16A8.87,8.87,0,0,1,102.4,191.27Zm-3.19-1.85a2.27,2.27,0,0,0-.07,2.13c0,.14.38.35.45.31a3.55,3.55,0,0,0,1-.78c.09-.11-.11-.55-.28-.74A10.49,10.49,0,0,0,99.21,189.41Z"/><path d="M187.77,364.33l1,.82a4.27,4.27,0,0,0-.38.6c-.09.21-.22.47-.15.65a12.44,12.44,0,0,1,.28,2.88c0,.31.13.61.19.91l.2.05c.16-.22.41-.42.48-.67.14-.51.47-.63.93-.66.35.68-.73,1.21-.11,1.84-.35.45-.69.86-1,1.3a.92.92,0,0,1-1.18.35c-.38-.18-.88-.31-.93-.94a3.24,3.24,0,0,0-.45-1.41,2.24,2.24,0,0,1-.12-2,1.28,1.28,0,0,0,0-1.16,2.92,2.92,0,0,1-.05-1.45c0-.14.18-.3.31-.39C187,364.8,187.31,364.62,187.77,364.33Z"/><path d="M200.93,361.24c0,.41,0,.81,0,1.21s.17,1,.2,1.49c.05.86.06,1.71.09,2.57s.07,2,.12,2.92c0,.38.1.76.15,1.14.11.81,0,.95-.93,1.23a5.32,5.32,0,0,1-.93-2.43,1.6,1.6,0,0,0,0-.18,9.09,9.09,0,0,1-.09-3.17,7.43,7.43,0,0,0-.31-3,1.85,1.85,0,0,1,.48-1.72C199.91,361,200,361,200.93,361.24Z"/><path d="M220.52,370.29a1.66,1.66,0,0,0-.25-.42c-1.16-1-.69-2.12-.37-3.25a1.51,1.51,0,0,0,.06-.67c-.18-.93-.45-1.85-.58-2.79s-.2-2.11-.24-3.17a1.65,1.65,0,0,1,.25-.82c.33-.59.74-.6,1,0a9.64,9.64,0,0,1,.36,1.82c.24,1.4.5,2.8.68,4.21a4.77,4.77,0,0,1-.07,1.94,3.61,3.61,0,0,0,0,1.73C221.47,369.68,221.39,369.86,220.52,370.29Z"/><path d="M192.26,282.59a5.71,5.71,0,0,1-.47-.68,1.12,1.12,0,0,1,.4-1.55,14,14,0,0,1,2.59-1.86,10.8,10.8,0,0,0,1.3-1.06,5.82,5.82,0,0,1,1.46-.8,1,1,0,0,1,1.34.67,1.33,1.33,0,0,1-.68,1.23,4.91,4.91,0,0,0-.64.55,3,3,0,0,1-.44.42,23.94,23.94,0,0,0-4.07,2.83C192.87,282.5,192.56,282.5,192.26,282.59Z"/><path d="M215.39,366.52c-.12.67-.26,1.34-.35,2a6.29,6.29,0,0,0-.24,2.11c.09.5-.36.71-.83.45a1.84,1.84,0,0,1-.8-1.73c.12-.85.25-1.69.37-2.54a.88.88,0,0,0,0-.36,15.36,15.36,0,0,1-.25-3.7,3.2,3.2,0,0,1,.18-1.13.82.82,0,0,1,1-.56,1,1,0,0,1,.68.93,10.2,10.2,0,0,1-.05,1.51C214.91,364.54,215.42,365.5,215.39,366.52Z"/><path d="M183.23,287.39a2.33,2.33,0,0,1,1.15-1.85,6.74,6.74,0,0,1,4.86-1.31.66.66,0,0,1,.46.22,3.71,3.71,0,0,1,.6,1.22c.05.3-.21.65-.34,1a5,5,0,0,1-.57-.1,3,3,0,0,0-3.67,1.19,1.08,1.08,0,0,1-1.68.24C183.76,287.81,183.49,287.58,183.23,287.39Z"/><path d="M296.17,367.31c-.29.05-.53.11-.76.14a1,1,0,0,1-1.17-.8c-.14-.48-.33-1-.45-1.44a2.51,2.51,0,0,1,.23-2.06,8,8,0,0,0,.95-3.77c0-.06,0-.12,0-.18a1,1,0,0,1,.8-1c.36,0,.63.4.63,1a11.34,11.34,0,0,1-.51,3.59,6.09,6.09,0,0,1-.31.83,1.38,1.38,0,0,0,.17,1.58A2,2,0,0,1,296.17,367.31Z"/><path d="M198.08,290a.83.83,0,0,1-.08.19c-1,1.21-2.21,1-3-.37a4.22,4.22,0,0,0-1.48-1.47c-.68-.42-1.36-.86-1.47-1.75.76-1.16,2.26-.72,3-.15a4.48,4.48,0,0,1,1,1,4,4,0,0,0,1.41,1.43c.17.09.23.38.35.58S198,289.84,198.08,290Z"/><path d="M169.72,374l.09-1.44a1.41,1.41,0,0,1-.37-1.67,2.61,2.61,0,0,0-.09-2.05c-.24-.58.2-.95.43-1.36.06-.1.49-.07.72,0s.61.15.67.6c.12.85.32,1.68.49,2.52a1.38,1.38,0,0,1,0,.26c0,.85,0,1.7,0,2.55a1.63,1.63,0,0,0,.06.42c.22.8.09,1-.69,1.15l-.52.09Z"/><path d="M270.52,358.81l.83.48c.05.62.11,1.17.14,1.72a3.18,3.18,0,0,1,0,1,6.69,6.69,0,0,0,.15,3.43c.2.81-.23,1.51-.29,2.27,0,.29-.77.64-1.12.58a1,1,0,0,1-.84-.69.6.6,0,0,1,.18-.71,1.84,1.84,0,0,0,.52-1.53,18.37,18.37,0,0,0-.34-3.35,7.29,7.29,0,0,1,0-2.11A1.2,1.2,0,0,1,270.52,358.81Z"/><path d="M255.55,359.79c-.72,0-.74.5-.76,1a3.9,3.9,0,0,1-.19,1,10.59,10.59,0,0,0-.27,5,4.46,4.46,0,0,1-.43.39c-.27.2-.52.55-.93.24s-.69-.58-.59-1.11a3.43,3.43,0,0,0-.06-2.26.38.38,0,0,1,0-.34c.51-.65.35-1.48.62-2.2a6.58,6.58,0,0,0,.11-1.4c.12-1,.58-1.26,1.51-.93.3.11.58.25.87.38Z"/><path d="M283,361.83c0,.77-.09,1.53-.1,2.3,0,1.18,0,2.35,0,3.53a.82.82,0,0,1-.54.84c-.37.16-.59,0-.8-.33a1.54,1.54,0,0,1-.3-1.15c.1-.64.05-1.3.1-2a8.16,8.16,0,0,1,.2-1c0-.11.14-.26.11-.33-.45-.84,0-1.74-.18-2.62a2.77,2.77,0,0,1,.1-1.77c.14-.32.28-.6.72-.46a.85.85,0,0,1,.61.88c0,.58,0,1.17,0,1.75,0,.12,0,.24,0,.36Z"/><path d="M202,308.89c.28.18.55.35.81.54s.38.52.16,1a2.78,2.78,0,0,1-1.82,1.51,2.15,2.15,0,0,0-1.31,1.4c-.18.55-1.08,1-1.49.75a1.41,1.41,0,0,1-.48-1.65,5,5,0,0,1,.55-.8,10.62,10.62,0,0,1,2.79-2.22Z"/><path d="M187,292.91a4.23,4.23,0,0,0,.34-.87c.11-.72.65-1.07,1.17-1.44a12.92,12.92,0,0,0,1.08-.79,3.32,3.32,0,0,1,2.28-.83c.56,0,.91.21,1,.79-.25.3-.48.61-.74.88a1.78,1.78,0,0,1-.61.49,4.67,4.67,0,0,0-2.1,1.56,3.28,3.28,0,0,1-.73.64C187.75,293.95,187.61,293.91,187,292.91Z"/><path d="M201.24,319a4.81,4.81,0,0,1-.61,1.2c-.47.54-1.15.91-1.6,1.47a5.87,5.87,0,0,1-1.52,1.14.89.89,0,0,1-1.44-.47.69.69,0,0,1,.28-.91q1-.73,2-1.5c.45-.37.47-.94.63-1.45.21-.67.43-.86,1.05-.9S201.27,318.08,201.24,319Z"/><path d="M309.31,366.13a1.5,1.5,0,0,1-1.22-1.7c0-.47,0-.95,0-1.42,0-1.33.1-2.66.11-4a5.73,5.73,0,0,0-.21-1.12c.74-.54.85-.45,1.14.34a17.55,17.55,0,0,1,.68,4.64c.08.84.2,1.67.31,2.56Z"/><path d="M140.69,405.52c-.27.59-.51,1.08-1.13,1.15a1.09,1.09,0,0,1-.63-.16c-.71-.42-.78-1.19-1-1.89-.12-.48-.15-1-.28-1.46-.24-.85-.53-1.69-.81-2.53-.19-.55-.06-.75.55-.78a1.26,1.26,0,0,1,1.5,1.05c.32,1.26.63,2.52.89,3.79A.93.93,0,0,0,140.69,405.52Z"/><path d="M310.71,358.07l.47-.82.71-.1c.07.1.15.17.17.25.11.63.19,1.28.33,1.9.24,1.07.51,2.13.76,3.2a4.16,4.16,0,0,1,.12.86,1.84,1.84,0,0,0,.24,1.2c.26.34.1.62-.26.79a1.36,1.36,0,0,1-1.28,0,.69.69,0,0,1-.44-.83,9.64,9.64,0,0,0-.22-3.46C311.06,360.13,310.91,359.13,310.71,358.07Z"/><path d="M93.16,192.66c-.17-1-.33-1.9-.51-2.85-.08-.41-.2-.81-.26-1.22s.14-.63.56-.57a6.65,6.65,0,0,1,1,.28.7.7,0,0,1,.5.66c.19,1.47.41,2.93.6,4.4A1,1,0,0,1,94,194.56a.66.66,0,0,1-.65-.5c-.13-.45-.21-.92-.32-1.38Z"/><path d="M185.12,322.79c-.49-.15-.92-.08-1.18-.55-.41-.72-.38-1.08.28-1.59a8.41,8.41,0,0,0,1.7-1.38,5.88,5.88,0,0,1,1.34-1.12,1.26,1.26,0,0,1,1.53.24c.48.57.33,1-.35,1.37a4.68,4.68,0,0,0-1.17.92,9.9,9.9,0,0,0-1.52,1.69C185.63,322.59,185.3,322.68,185.12,322.79Z"/><path d="M189.65,311.29a11.13,11.13,0,0,1-3.1,2.55c-.22.1-.38.35-.56.53a8.17,8.17,0,0,1-.82.8c-.41.31-.66.25-1-.12A.78.78,0,0,1,184,314a8.07,8.07,0,0,1,3.67-3.12A1.49,1.49,0,0,1,189.65,311.29Z"/><path d="M184.69,176.93a7.47,7.47,0,0,1-.79-.9c-.17-.26,0-.47.24-.68.43-.45.79-1,1.19-1.43a5.05,5.05,0,0,1,2.59-1.62,5.5,5.5,0,0,0,1-.43.74.74,0,0,1,1,.12.65.65,0,0,1-.12.89,6.35,6.35,0,0,1-1.27,1,9.42,9.42,0,0,0-3.1,2.5A4.37,4.37,0,0,1,184.69,176.93Z"/><path d="M148.7,376a1.42,1.42,0,0,1-1-1.53,23.31,23.31,0,0,0-.35-4.06,1.29,1.29,0,0,1,.88-1.61c.48-.15.72,0,.69.46a11.74,11.74,0,0,0,.28,2.73,13.9,13.9,0,0,1,.08,2.3c0,.14-.08.31,0,.43C149.49,375.34,149,375.63,148.7,376Z"/><path d="M299.83,398l1.08-.33a2.15,2.15,0,0,1,1.16,1.85c.14.94.4,1.85.63,2.77.17.68,0,1-.48,1.23a.92.92,0,0,1-1.13-.63,15.3,15.3,0,0,1-.69-2C300.17,400,300,399,299.83,398Z"/><path d="M215.16,399c1.45-.19,1.67-.08,2.2.91.39.73.77,1.47,1.21,2.17a9.32,9.32,0,0,0,.92,1.08,1.14,1.14,0,0,1-1.2.77,1.34,1.34,0,0,1-1.25-.77,27.94,27.94,0,0,1-1.29-2.53C215.52,400.18,215.37,399.65,215.16,399Z"/><path d="M159,375.42c-.93-.32-.92-.32-1-1.14,0-.5-.13-1-.17-1.48a6.23,6.23,0,0,1,0-.7,2.43,2.43,0,0,0,0-.76,1.87,1.87,0,0,1,.68-2.09,2.21,2.21,0,0,1,.65.21.82.82,0,0,1,.35.53c0,.8,0,1.6,0,2.4,0,.38.09.76.12,1.15C159.69,374.22,159.85,375,159,375.42Z"/><path d="M203.66,304.89a10.25,10.25,0,0,0-3,2,.73.73,0,0,1-1,.22,1.07,1.07,0,0,1-.22-1.22,4.17,4.17,0,0,1,2.25-2.07c.42-.17.79-.51,1.34-.36s1,.4.71,1.12A2.65,2.65,0,0,0,203.66,304.89Z"/><path d="M188.31,305l.3.52a10.44,10.44,0,0,1-3.31,2.47s-.12,0-.14-.09c-.78-1.18-.75-1.45.44-2.2.5-.32.92-.86,1.62-.79l1.13.12Z"/><path d="M183.92,359.77c-.07-1.25.15-1.73,1.27-2.2a2,2,0,0,1,1.28,0,.89.89,0,0,1,.24.82c-.39.52-.5,1.24-1.2,1.55S184.68,360.34,183.92,359.77Z"/><path d="M322.18,103.74a9.78,9.78,0,0,1,.25,1.35,1.5,1.5,0,0,0,.56,1.38.86.86,0,0,1,.22.59,18.54,18.54,0,0,1,.11,2.42,35.88,35.88,0,0,1-.4,3.87,15.9,15.9,0,0,1-.77,2.66c-.31.86-.66,1.71-1,2.57a27.83,27.83,0,0,1-1.85,3.85,22.35,22.35,0,0,0-1.65,2.89c-.1.27-.42.44-.6.69-.71,1-1.4,2-2.1,2.94-.13.18-.3.32-.41.5-.32.49-.6,1-.93,1.49a7.69,7.69,0,0,1-1,1.33,32.25,32.25,0,0,0-4.92,5.81,10.18,10.18,0,0,1-1.56,1.57c-.57.56-1.17,1.09-1.72,1.68a8.36,8.36,0,0,1-2.36,2.08,2.53,2.53,0,0,0-1,1.05,6.43,6.43,0,0,1-2.77,2.43,3.81,3.81,0,0,0-2.2,3.1c-.09.88-.2,1.77-.24,2.66,0,1.14-.1,2.28-.08,3.42a10.63,10.63,0,0,0,.27,1.64,2,2,0,0,1-.66,2c-.9.79-1.72,1.7-2.55,2.57a9.06,9.06,0,0,0-2.26,4,1.06,1.06,0,0,1-.9.91,1.21,1.21,0,0,0-.9.68c-.39.72-.87.75-1.59.29a1.4,1.4,0,0,0-.69-.24,18.43,18.43,0,0,1-3.12-.4c-1.37-.25-2.78-.26-4.17-.38-1.21-.1-2.41-.24-3.62-.3-1.05-.06-2.11,0-3.17-.07-.37,0-.87.07-1.06-.14a2.17,2.17,0,0,1-.63-1.3,1.4,1.4,0,0,0-.93-1.36,1.48,1.48,0,0,1-.59-.44c-.44-.64-.81-1.33-1.25-2a17.28,17.28,0,0,0-1.29-1.71c-.7-.79-1.44-1.55-2.18-2.3a2.56,2.56,0,0,0-.81-.61,2.87,2.87,0,0,1-1.25-1.2,50.89,50.89,0,0,0-4.54-6.12c-1-1.05-1.65-2.3-2.58-3.38-.79-.92-1.52-1.88-2.28-2.82a1.22,1.22,0,0,0-.41-.37,4.22,4.22,0,0,1-1.55-1.56c-.71-.91-1.37-1.85-2.09-2.75-.31-.38-.75-.66-1.08-1-1.07-1.17-2.13-2.35-3.15-3.55-1.59-1.87-3.15-3.75-4.71-5.64-.25-.31-.41-.7-.66-1-1.15-1.4-2.32-2.79-3.49-4.18a3.11,3.11,0,0,1-.41-.51,9.11,9.11,0,0,0-1.85-2,30.83,30.83,0,0,1-4.77-5.34c-.58-1-1.3-1.82-1.94-2.74a.87.87,0,0,0-.86-.4c-2,.1-4,.1-6,.25-1.52.12-3,.42-4.53.63-1.2.17-2.4.3-3.6.47a6.57,6.57,0,0,0-1.62.36c-.93.4-1.84,0-2.75,0-.11,0-.26-.17-.33-.3a6.56,6.56,0,0,1-.53-1.18,7.67,7.67,0,0,1-.38-3.19,30.58,30.58,0,0,0,.09-5.09c-.06-1.64-.91-2.92-1.34-4.38,0-.12-.15-.22-.15-.34-.1-1.7-1.42-2.71-2.25-4-.51-.78-1.44-.94-2.16-1.4a.32.32,0,0,0-.27,0c-1.08.58-2.31.38-3.44.65-.81.19-1.61.47-2.41.72a12.44,12.44,0,0,0-1.76.59,9.37,9.37,0,0,1-2.6.66c-1.84.32-3.67.67-5.49,1.07a8.14,8.14,0,0,0-1.91.74,5.43,5.43,0,0,1-2.72.48c-1.46,0-2.91-.06-4.37-.05a3.56,3.56,0,0,0-1,.24c-.15,0-.27.17-.42.2-1.8.37-3,1.63-4.32,2.78a7.87,7.87,0,0,0-1.3,1.67c-.82,1.29-1.63,2.58-2.36,3.92a2.33,2.33,0,0,1-1.71,1.28c-1.25.23-2.51.43-3.77.62-1,.16-2,.36-3,.41-1.27.07-2.55,0-3.82,0-1.64,0-3.29-.14-4.93-.18a3.89,3.89,0,0,0-2.45,1,4.33,4.33,0,0,1-2.77,1,12.43,12.43,0,0,0-3.25.16,14.72,14.72,0,0,1-3.3.17c-1.43,0-2.85.16-4.27.22-2.36.1-4.72.11-7.07.3-2.06.16-4.1-.12-6.15-.06-1.27,0-2.53.21-3.8.34q-1.25.13-2.49.3a23.25,23.25,0,0,1-4.84,0,5.09,5.09,0,0,0-1.3.12,34.75,34.75,0,0,1-5.55.65c-1.33,0-2.65.29-4,.44q-1,.11-1.92.19c-.73.06-1-.54-1.14-1a2.57,2.57,0,0,1-.33-1.6.75.75,0,0,0-.67-.86,1,1,0,0,1-.9-1.19,5.61,5.61,0,0,0-.69-2.93c-.35-.64-.35-1.47-.7-2.11-1.09-2-.9-4.07-.68-6.17a5.54,5.54,0,0,1,.71-2.2,8.32,8.32,0,0,0,1.07-3.07,4.18,4.18,0,0,1,.47-1.41,10.09,10.09,0,0,0,.94-4.79c0-.62.12-1.24.16-1.86,0-.43,0-.87,0-1.3a1.52,1.52,0,0,1,1.28-1.79.91.91,0,0,0,.18,0A5.42,5.42,0,0,1,98.87,82c1.29.12,2.6-.05,3.9,0a16.77,16.77,0,0,1,1.82.2c.1-.27.3-.54.27-.78-.12-1.08.44-2,.6-3.06a5.79,5.79,0,0,1,1.21-2c.47-.69.93-1.39,1.46-2s1-1.06,1.54-1.6c1.43-1.5,2.86-3,4.18-4.6.59-.72,1.28-1.36,1.9-2a4.2,4.2,0,0,0,.67-.9,3.35,3.35,0,0,1,1.71-1.49,17.28,17.28,0,0,1,6.08-1.27c.87-.08,1.74-.13,2.61-.14a.75.75,0,0,0,.8-.73,4,4,0,0,0,.06-.46,16.54,16.54,0,0,1,.82-3.24,4.94,4.94,0,0,0,.32-2.46.74.74,0,0,1,.1-.51c.64-1,.57-2.15.95-3.19.07-.18,0-.42-.07-.64a2.69,2.69,0,0,1,0-.8c.09-.39.16-.93.43-1.09a5.86,5.86,0,0,1,2.19-1c.77-.1,1.53-.24,2.29-.4,1.21-.25,2.43-.49,3.62-.82.77-.21,1.49-.61,2.25-.86a16.6,16.6,0,0,1,2.06-.49,5.54,5.54,0,0,1,1,0,6.85,6.85,0,0,0,1-3.32,7.81,7.81,0,0,1,.3-2.2,37.09,37.09,0,0,0,.43-5.56,9.51,9.51,0,0,0-.1-3,1.37,1.37,0,0,1,1.64-1.51,2.37,2.37,0,0,0,1.45-.06c-.09-.3-.19-.56-.24-.82a5,5,0,0,1-.06-.63,4.09,4.09,0,0,1,3.1-.81c1.87.09,3.73.23,5.6.3,3.48.14,7,.23,10.44.39,1.18.05,2.35.27,3.53.36s2.36.18,3.54.18c2,0,4.09-.14,6.13-.15s4.29.09,6.44,0c1.93,0,3.85-.26,5.77-.3s3.85,0,5.78.06l.28,0,5.39-.17c.77,0,1.55,0,2.32-.06s1.53-.29,2.29-.31a28.83,28.83,0,0,1,3.34.13,27.08,27.08,0,0,0,5.57.08,6.34,6.34,0,0,1,1.76,0,36.53,36.53,0,0,0,5.11.15c1.32,0,2.65-.19,4-.23s2.48.07,3.72,0c2.49-.15,5,.06,7.44.06,1.17,0,2.35-.21,3.52-.3.46,0,.92,0,1.37,0,1.86,0,3.72-.06,5.59-.06.84,0,1.68.12,2.51.13.59,0,1.17-.09,1.76-.12,1.46-.08,2.92-.17,4.38-.2s2.87,0,4.3,0,2.59-.21,3.88-.26,2.48,0,3.73,0c.74,0,1.49-.06,2.23-.12,1.67-.15,3.34-.17,5-.15,1.15,0,2.29-.06,3.44-.12a5.09,5.09,0,0,0,1-.19,6,6,0,0,1,3.48-.19c.27.09.61-.05.91,0a41.61,41.61,0,0,0,5.11-.39c.67-.07,1.36,0,2,0,1.18,0,2.36-.08,3.55-.1s2.42,0,3.63,0c.06,0,.14.06.18,0,1.36-.67,2.68,0,4,.11a70.5,70.5,0,0,0,8,0c2.26-.15,4.54-.13,6.8-.29a16.55,16.55,0,0,0,3.67-.6c.92-.28,1.47.22,2.15.53a.32.32,0,0,1,.15.23,1.72,1.72,0,0,0,1.23,1.48.59.59,0,0,1,.33.7,2.45,2.45,0,0,0,.35,1.51,17,17,0,0,1,.61,1.64c.55,1.55,1.08,3.1,1.66,4.64s1.21,3,1.82,4.57a2.08,2.08,0,0,1,.16.44,20.79,20.79,0,0,0,1.84,5c.95,2.22,1.71,4.5,2.46,6.78.6,1.85.91,3.78,1.37,5.66.22.93.58,1.82.82,2.74a18.08,18.08,0,0,1,.32,1.93c.25,1.72.4,3.46.76,5.16a21.32,21.32,0,0,1,.39,4.25c0,2.18.53,4.32.51,6.5,0,1-.06,2-.05,3,0,.62.08,1.24.11,1.86.05,1,.1,2,.15,3a1.63,1.63,0,0,0,.1.63,7.94,7.94,0,0,1,.64,3.27,9.74,9.74,0,0,1,.06,1.56,7.09,7.09,0,0,1-1.27,2.76,2.94,2.94,0,0,0-.53,1,1.46,1.46,0,0,1-.86,1.13c-1.1.64-2.21,1.29-3.34,1.86-.63.32-1.34.49-2,.75-.43.17-.83.41-1.26.6s-.91.38-1.38.56c-1,.39-2.08.81-3.15,1.14a22.49,22.49,0,0,1-2.72.61,3.64,3.64,0,0,0-1.32.38A8.38,8.38,0,0,1,322.18,103.74Zm-73.56,27.17c-.08.68.09.92,1,1.37.31-.3.06-.5-.15-.67s-.57-.46-.86-.68c-.63-.51-1-1.26-1.78-1.65a10.45,10.45,0,0,0,.83,1.22A1,1,0,0,0,248.62,130.91ZM119.55,92.19a3.64,3.64,0,0,1-1.2.34,1.23,1.23,0,0,0-.92.31c-.2.15-.36.35-.56.49s-.34.15-.41.1a.59.59,0,0,1-.21-.45,10.56,10.56,0,0,1,.33-1.2,11.55,11.55,0,0,0-2.2.55,1.11,1.11,0,0,0-.45.32c-.56.74-1.13,1.47-1.63,2.24-.85,1.29-1.84,2.18-3.54,1.68a1.46,1.46,0,0,0-.87.19c-.62.28-1.24.59-1.84.92-1.24.7-2.45,1.45-3.71,2.13a4,4,0,0,1-3,.77,2.91,2.91,0,0,0-2.29.53,10.37,10.37,0,0,0-1.13.82c.3,1.05.54,2.14.91,3.18a20.36,20.36,0,0,0,1.2,3.26,4,4,0,0,0,.41-.37,1.12,1.12,0,0,1,1.47-.37,2.14,2.14,0,0,0,1,0c.49,0,1-.21,1.47-.22,1.77,0,3.54,0,5.32,0,1.51,0,3,.11,4.54.13,2.08,0,4.17,0,6.25,0,.81,0,1.61.11,2.42.14.39,0,.83-.1.77-.6-.12-1.09-.32-2.18-.49-3.27,0,0,0-.05,0-.08-.31-.69-.47-1.45-.73-2.16a12.38,12.38,0,0,1-.41-2.17,35.37,35.37,0,0,1-.31-4c-.05-.84-.07-1.67-.1-2.51,0-.29,0-.57-.06-.87s.22-.84-.1-1.22c-.38.06-.47.25-.33.53A8.31,8.31,0,0,0,119.55,92.19ZM277.57,52c-.28.47-.52.86-.75,1.27-.07.13-.18.29-.15.41a3.54,3.54,0,0,1-1.74,3.69c-.38.28-.75.56-1.1.86a4,4,0,0,0-.59.59q-1.35,1.73-2.68,3.47a1.1,1.1,0,0,0-.11.33c.38,0,.7.06,1,.06a1.53,1.53,0,0,0,.72-.12,3.74,3.74,0,0,1,2.34-.36c.83.07,1.66.26,2.5.27a6.44,6.44,0,0,1,3.5,1.05c.31.2.66.51,1,.48a13.16,13.16,0,0,0,2.33-.52c.5-.15.94-.5,1.44-.6,1.28-.25,2.57-.41,3.86-.58a2.39,2.39,0,0,1,.74.1c.42.08.84.22,1.27.27a2,2,0,0,1,1.64,1.07l.66,1.2c.7-.31,1.37-.59,2-.9.41-.2.8-.47,1.21-.67a20.41,20.41,0,0,1,3.73-1.35c1.2-.32,2.39-.67,3.56-1.07a6.17,6.17,0,0,0,2.93-2.33,1.69,1.69,0,0,1,.53-.46c.21-.12.52-.1.7-.25a1.43,1.43,0,0,1,2,.11,2,2,0,0,0,2.41.23,2.35,2.35,0,0,1,1.18-.12c.9,0,1.8.11,2.7.13a1.28,1.28,0,0,0,.87-.21,4.83,4.83,0,0,1,1.51-1.21c.19-.09.3-.36.45-.56-.35-.51-.84-.42-1.3-.42-.81,0-1.62,0-2.42,0a1.37,1.37,0,0,1-1.12-.55,4,4,0,0,1-.91-1.14,4.46,4.46,0,0,1,0-1.44c0-.05-.06-.1-.11-.19a3,3,0,0,1-2.23-.83,1.47,1.47,0,0,0-1-.3,1.7,1.7,0,0,1-1.64-1,2,2,0,0,0-1-.79,9.86,9.86,0,0,1-2.3-1.37,6.18,6.18,0,0,0-2.81-1.54,3.09,3.09,0,0,0-1.08-.06,1.53,1.53,0,0,1-1.69-1.28c0-.66,0-1.33,0-2-.63.1-1.18.21-1.73.25-.36,0-.8-.16-1.08,0a7.35,7.35,0,0,0-2.88,2.13,1.71,1.71,0,0,1-1.25.82,9.61,9.61,0,0,0-1.26.35c.15,1.07-.36,2.13.58,3L291,51.22c.27.84.26.84,1,1.08a14.3,14.3,0,0,0,1.43.41,3.72,3.72,0,0,1,2.35,2.09c.38.61,0,1.36-.76,1.87a2.21,2.21,0,0,0-1,1.49,1.6,1.6,0,0,0,.43,1.78.76.76,0,0,1,.2,1,1.08,1.08,0,0,1-1.09.55,2.07,2.07,0,0,1-1.56-1.32,2.66,2.66,0,0,1,0-2.42.39.39,0,0,0,.06-.27c-.27-.81.4-1.23.73-1.79a5.63,5.63,0,0,1,.45-.58,1.73,1.73,0,0,0-1.24-.65,2.85,2.85,0,0,1-2.57-1.58,9.88,9.88,0,0,0-.94-1.37l-1.3.71a12,12,0,0,1-1.89,1c-1.35.45-2.74.78-4.12,1.15a1.84,1.84,0,0,1-2-.73.77.77,0,0,1-.09-1,.69.69,0,0,1,.83-.24,1.39,1.39,0,0,0,.64.06c1.42-.33,2.84-.67,4.26-1a3.45,3.45,0,0,0,1-.45c.8-.53,1.56-1.13,2.37-1.65s1.52-.91,1.09-2a.14.14,0,0,1,0-.09,1.2,1.2,0,0,0-.3-1.27c-.39.13-.81.24-1.21.39a7.11,7.11,0,0,0-1.17.55c-.7.43-1.52.29-2.25.55a1,1,0,0,1-1-.06c-.28-.23-.52-.11-.74.11-.61.6-.62.6-1.32.3a1.79,1.79,0,0,1-1.28-1.56,2.53,2.53,0,0,0-.16-.53,4.91,4.91,0,0,0-.19-.61,1.1,1.1,0,0,1,.28-1.51,1.56,1.56,0,0,1,1.6.09,1,1,0,0,1,.48,1.39,2.09,2.09,0,0,0-.29.68,1.06,1.06,0,0,0,.21.74c.21.21.48.08.74-.11.79-.56,1.48-1.39,2.63-1.11.1,0,.24-.07.35-.11a20.59,20.59,0,0,0,2.21-.92,3.22,3.22,0,0,1,2.83-.4l.12.06.41.74a10.1,10.1,0,0,0,2-1c.68-.55,1.54-1,1.89-1.87,0-.12.24-.18.36-.26a2,2,0,0,1,1.69-.16c1,.31,1.43-.05,1.4-1.06a1.94,1.94,0,0,1,1.38-2l.9.52.15-.19-.48-.62a3.4,3.4,0,0,1-.86-2.41,11.38,11.38,0,0,1,.79-3.61.55.55,0,0,0-.49-.85,3.76,3.76,0,0,0-1,.07,15.74,15.74,0,0,1-4.92.25,25,25,0,0,0-6.74.41,6.17,6.17,0,0,1-1.76.06,17.34,17.34,0,0,0-3.8-.2c-1.14.13-2.29.15-3.44.22l-1.53.1c.84.49.88,1.32,1.09,2,.35,1.22.71,2.44,1,3.67.23.94.46,1.9-.36,2.72a1.07,1.07,0,0,0-.25,1,5,5,0,0,1,.15,1c0,1.27.32,2.58-.68,3.72a1.26,1.26,0,0,1-1.08.54c-.57-.06-1.21.11-1.69-.5a2,2,0,0,0-1.07-.52c-1.11-.28-2.24-.48-3.36-.76a23.44,23.44,0,0,1-2.94-.88c-.93-.37-1.42-1.37-2.29-1.86-.06,0,0-.18-.08-.26-.15-.34-.32-.67-.45-1s-.58-.88-.46-1.48a9,9,0,0,0,.07-3.33,3.35,3.35,0,0,1,.16-1.18c.18-.88.39-1.75.61-2.7-.27,0-.5,0-.74,0-1.24,0-2.49,0-3.73.08l-5.31.18-2.33.06c-2.58,0-5.16.08-7.75.13-.93,0-1.86.12-2.79.14-.73,0-1.46-.05-2.09-.08-.61.66-.39,1.27-.39,1.92a3.88,3.88,0,0,0,.93,2.54,2.18,2.18,0,0,1,.57,1.4,14.39,14.39,0,0,1-.77,3,2,2,0,0,0,.43,2.16c.43-.37-.18-.66,0-1.1.72-.25,1.37-.92,2.33-.66a.48.48,0,0,0,.41-.12c.46-.65,1.11-.56,1.78-.52a12.5,12.5,0,0,0,4-.49,4.29,4.29,0,0,1,2.66,0,7,7,0,0,0,3.49.37c.51-.07,1-.32,1.5-.43a14.61,14.61,0,0,0,1.91-.38c.64-.24,1.15.06,1.7.18.14,0,.22.32.3.45-.32.36-.6.65-.86,1s-.76.11-1.14.18c-.09,0-.17.08-.26.1l-1.51.37a4.27,4.27,0,0,0-.9.2,5.08,5.08,0,0,1-3.56.26,5.92,5.92,0,0,0-3.62-.15,2,2,0,0,1-.56,0l-1.77.09-2,.08a2.27,2.27,0,0,0-.45,0l-3.34.85a3,3,0,0,0,.22.89,6.25,6.25,0,0,1,1.13,4.1c0,.33-.05.66-.08,1,.82.58.94.82.63,1.7a3.19,3.19,0,0,0-.18,1.73.78.78,0,0,1-.31.67,1.28,1.28,0,0,1-1,.08,1.35,1.35,0,0,1-.68-1.56c.08-.39.21-.77.31-1.16a3.14,3.14,0,0,1-.69-2.31,5,5,0,0,0-.64-3.57,6.4,6.4,0,0,1-.95-1.75c-.21-.83-.28-1-1.47-1a2.93,2.93,0,0,0-.72.17,7,7,0,0,1-4.4.09,2.43,2.43,0,0,0-2,.18,4.71,4.71,0,0,1-1.39.49c-1,.14-2,.18-3.07.26a18.88,18.88,0,0,0-2.48.2,4,4,0,0,1-2.1.16c0,.89,0,1.69-.12,2.49-.11,1-.31,2-.44,3-.15,1.18-.65,1.42-1.66.75a.86.86,0,0,1-.14-.15l.61-4.4a4.61,4.61,0,0,0-.95-3.67,1.73,1.73,0,0,1-.33-1.88,7.11,7.11,0,0,1,.73-1.29c.27-.42.6-.8.85-1.22s.62-1.19,1-1.9a1.87,1.87,0,0,1,.4-2.22,1.23,1.23,0,0,1,1.3.76,2.24,2.24,0,0,0,.27.49,1.29,1.29,0,0,1,.12,1.57c-.29.64-1,1-1.06,1.82,0,0-.17.07-.23.13-.58.65-1.17,1.28-1.7,2a.76.76,0,0,0,0,.68c.37.69.81,1.34,1.21,2a1.06,1.06,0,0,0,0-.17c.14-.8.42-1,1.22-1s1.9,0,2.84-.08a6.27,6.27,0,0,1,1.29-.07,7.81,7.81,0,0,0,4-.78,2.54,2.54,0,0,1,1.34-.18c.37.07.74.12,1.11.17a8.76,8.76,0,0,0,5-.35,2.18,2.18,0,0,0,1.4-1.31,1.78,1.78,0,0,0-.32-1.57,3.92,3.92,0,0,1-.57-1.16c-.29-1.29-.51-2.6-.77-3.95a7.65,7.65,0,0,0-.92-.08c-1.8,0-3.61.14-5.41.17q-4.95.09-9.89.13c-1.18,0-2.36,0-3.54,0l-5.69,0c-1.21,0-2.42,0-3.63,0-1.49,0-3,.12-4.47.17-1.28,0-2.55.08-3.83.1-.43,0-.63.2-.64.61,0,.25,0,.5,0,.75a8.1,8.1,0,0,1-.09,1.48,9.79,9.79,0,0,1-2.06,4,9.17,9.17,0,0,0-1.62,3A7.42,7.42,0,0,1,195.5,45a3.63,3.63,0,0,1-4.23,1.27,6.6,6.6,0,0,1-2.09-1.5,2.75,2.75,0,0,0-2.71-.86c-.84.23-1.67.46-2.5.71-2.08.63-4.14,1.28-6.23,1.89-.26.07-.71,0-.83-.13a1.65,1.65,0,0,1-.23-1c0-.42.44-.54.8-.67,1.43-.5,3-.48,4.36-1.22l.09,0,4-1.09a4.16,4.16,0,0,1,3.35.24,5.85,5.85,0,0,1,2,1.64,1.09,1.09,0,0,0,.53.35,2,2,0,0,0,2.63-1.13c.33-.76.55-1.57.87-2.34A5.67,5.67,0,0,1,197,38.59a1.91,1.91,0,0,0,.72-1.15,7.11,7.11,0,0,1,.48-1.09,1.27,1.27,0,0,0,.19-.49,4,4,0,0,0-.53-2.22l-1.05-.05c-.56,0-1.11-.06-1.67-.05-1.49,0-3,0-4.47.1s-3.22.29-4.84.36c-1,0-2-.09-3-.1-1.68,0-3.36,0-5,0-.61,0-1.22,0-1.76.07a9.49,9.49,0,0,1-.18,1,7.58,7.58,0,0,0-.36,3.57,3.69,3.69,0,0,1-.24,2c-.23.61-.53,1.2-.77,1.8a1.46,1.46,0,0,0,.12,1.58,4.26,4.26,0,0,1,.77,3,1.57,1.57,0,0,0,.46,1.27c.34.36.69.72,1,1.1.45.53.45.72.06,1.31-.26.39-.55.76-.78,1.17a2.18,2.18,0,0,0,0,2.39A5,5,0,0,0,177,55l-.73,1.36a2,2,0,0,0,1.74.34,3.74,3.74,0,0,1,2.27.29c.75.28,1.46.63,2.28,1a11,11,0,0,1,.55-1A2.94,2.94,0,0,1,185,55.61,4.11,4.11,0,0,1,188.77,57a2.28,2.28,0,0,0,2.33.77c.27-.07.56-.05.83-.11a2.24,2.24,0,0,0,1.92-1.9,7.18,7.18,0,0,0-.2-3,1.2,1.2,0,0,0-.42-.71c-.58-.29-.6-.88-.87-1.33a3.2,3.2,0,0,1-.19-2.41.83.83,0,0,1,.91-.73,7.23,7.23,0,0,0,.21,1c.34.94.47,2,1.56,2.51a.72.72,0,0,1,.38.39,12.89,12.89,0,0,1,.63,3,19.57,19.57,0,0,1-.56,3.37,18.33,18.33,0,0,1,1.38,1.89,2.16,2.16,0,0,0,1.13,1,2.49,2.49,0,0,1,1.54,1.4c.26.8.49,1.62.7,2.42a7.58,7.58,0,0,1-.21,2.57.42.42,0,0,1-.15.22c-.51.45-1,.88-1.53,1.33A1.53,1.53,0,0,1,197,69c-.91-1.11-.46-1.36.17-2,.15-.15.34-.27.5-.43s.27-.24.27-.36a5.81,5.81,0,0,0-.21-2.78c-.27-.53-.5-1.07-1.16-1.24a1.18,1.18,0,0,1-.53-.36,6.82,6.82,0,0,1-1.84-2.4c0-.11-.14-.19-.12-.16-1.58.07-3,.15-4.48.17a1.49,1.49,0,0,1-.82-.33c-.75-.55-1.46-1.16-2.21-1.71a1.13,1.13,0,0,0-.69-.15c-.78,0-1.17.63-1.57,1.19s-.83,1.48-1.91,1.76c-.54-.33-1.2-.72-1.84-1.14a3.08,3.08,0,0,0-2.39-.54c-.43,1.07.09,1.6.89,2.1,1.24.77,2.43,1.62,3.61,2.49a9.5,9.5,0,0,1,1.55,1.47,3.72,3.72,0,0,1,1,2.28,7.94,7.94,0,0,0,.86,3.22,5.21,5.21,0,0,1,.48,2.79c-.78.41-1.16.36-1.4-.21-.39-.94-.78-1.89-1.1-2.86a3.74,3.74,0,0,1-.32-1.71,3.54,3.54,0,0,0-1.56-3.63c-1.28-1-2.65-1.85-4-2.77-.46-.32-.91-.64-1.38-.94a1,1,0,0,1-.51-1.3c.19-.61-.11-.86-.8-.9-.19,0-.45,0-.54-.07-.41-.44-.8-.17-1.19,0a6,6,0,0,0-.86.37,9.76,9.76,0,0,1-3.66,1.06,10.58,10.58,0,0,0-2.71.65,4.86,4.86,0,0,1-3.29.21,1.23,1.23,0,0,0-.63-.09,6.42,6.42,0,0,0-3.38,1.84,2.52,2.52,0,0,1-1.67,1.12,11.42,11.42,0,0,1-2.59-.21c-.44-.09-.84-.36-1.34-.23a.63.63,0,0,1-.49-.19,11.42,11.42,0,0,1-2.67-3.17,2.33,2.33,0,0,0-1.06-1.13A7.9,7.9,0,0,1,145.88,55a12.54,12.54,0,0,1-.8-4.18c0-.13.1-.28.17-.47a2.85,2.85,0,0,1,2.56,1.25l-.88.65A5,5,0,0,0,148,55.36a13.72,13.72,0,0,0,2.28,1.89A4.72,4.72,0,0,1,151.93,59a5.15,5.15,0,0,0,1.08,1.6c1.09,1,2.55,1.16,4,1.37.41.06.66-.18.93-.48A5.94,5.94,0,0,1,159.53,60a6.23,6.23,0,0,1,4.5-.78,3.92,3.92,0,0,0,3.07-.41,5.39,5.39,0,0,1,1.41-.45,12.69,12.69,0,0,0,2.72-.5c1.25-.61,2.51-1.2,3.76-1.8a9.48,9.48,0,0,1-.76-3c-.26-1.16.52-2.06.91-3.05a3.63,3.63,0,0,1-1.42-3.18,2.76,2.76,0,0,0-.45-1.74,4,4,0,0,1-.22-3.44c.19-.35.53-.66.61-1,.17-.88.23-1.77.32-2.66,0-.46.05-.92.09-1.39.07-.81.45-1.62,0-2.51l-4.53-.34c-.56,0-1.11-.14-1.67-.15-2.65-.05-5.3-.06-7.94-.14-1.49,0-3-.22-4.47-.3s-2.92-.14-4.38-.18c-.21,0-.55.13-.6.27-.11.37.32.26.49.4s.07.1.05.08c-.22,1.92-.41,3.76-.64,5.61a5.68,5.68,0,0,1-.37,1.92,5,5,0,0,0-.36,2.73,2.47,2.47,0,0,1-.2,1c-.16.4-.4.76-.58,1.15-.32.66-.63,1.33-1,2a1.24,1.24,0,0,0-1.57,1,1.37,1.37,0,0,1-.6.68,6.58,6.58,0,0,1-3.1,1.15c-.68,0-1.37,0-2,0-1.69-.08-3.35-.14-4.81,1a1.4,1.4,0,0,0-.72,1.17,22.43,22.43,0,0,1-1.38,6.73c-.18.52-.33,1.06-.48,1.6-.21.78-.39,1.56-.6,2.34a3.33,3.33,0,0,0,.1,1.82.77.77,0,0,0,.73.62,3.7,3.7,0,0,0,1.19-.13c.77-.23,1.52-.55,2.29-.8a19.17,19.17,0,0,1,6.5-1,10.5,10.5,0,0,1,1.56.27,9.48,9.48,0,0,0,1.64.29c1.52,0,3.06.18,4.5-.54A2.51,2.51,0,0,1,152,64a1.06,1.06,0,0,1,1.19,1.24,1.27,1.27,0,0,0,.09.7,9.12,9.12,0,0,0,1,1.65c.89,1,1.84,2,2.78,3a2.29,2.29,0,0,0,.7.44,4,4,0,0,0,1,.35c.51.09.64.44.71.85a2.71,2.71,0,0,1,0,.74,3,3,0,0,0,.81,2.48,1.71,1.71,0,0,1,.41,1.09,12.55,12.55,0,0,1-.34,2c-.14.7-.65.86-1.24.44a1,1,0,0,1-.51-1.27,3.75,3.75,0,0,0,.18-.91c0-.24,0-.57-.1-.71a5.61,5.61,0,0,1-1.16-2.89,1.34,1.34,0,0,0-.63-.85,3.81,3.81,0,0,1-1.37-1.09,15.06,15.06,0,0,0-1.62-1.8,8.58,8.58,0,0,1-2.22-2.72c-.13-.24-.28-.48-.46-.77l-.8.24a9.66,9.66,0,0,1-1.7.46,14.51,14.51,0,0,1-2.23,0,4.3,4.3,0,0,1-1.71-.34,4.09,4.09,0,0,0-1.89-.34,26.89,26.89,0,0,0-4.07.4,27,27,0,0,0-3.45,1.11c-.12,0-.2.21-.23.26l2.4,6c-.3,1.06-.6,2-.84,3,0,.16.12.39.22.57.51.88,1,1.76,1.55,2.63a5.54,5.54,0,0,0,.93,1.36,8.17,8.17,0,0,1,2.08,3.38,1.8,1.8,0,0,1-.1,2c-.09.1-.06.34,0,.51a8.09,8.09,0,0,0,.2.8,6.28,6.28,0,0,0,1.19-.32,4.79,4.79,0,0,1,2.29-.24c1.23,0,2.45.24,3.68.28a5.69,5.69,0,0,0,3.54-1.23c.65-.47,1.19-1.08,1.81-1.59a4,4,0,0,1,2-1.18c.4,0,.8-.06,1.2-.09a19,19,0,0,1,2.31-.14,2.84,2.84,0,0,1,1.27.5c.19.12.24.46.4.81a5.71,5.71,0,0,1-1,.22,15.56,15.56,0,0,1-1.57,0,5.57,5.57,0,0,0-4.11,1.46,8.11,8.11,0,0,1-3,1.84,18.16,18.16,0,0,1-2.2.71,7.14,7.14,0,0,1-2.4,0,8.47,8.47,0,0,0-2.77-.13c-1,.13-2,.32-3.05.42s-1.87,0-2.79.15a3.08,3.08,0,0,0-1.28.49,8.34,8.34,0,0,0-2.73,3.69.68.68,0,0,0,.12.58c.9,1.11,1.77,2.25,2.78,3.26a2.51,2.51,0,0,1,.81,1.6,13.71,13.71,0,0,0,.94,3.5c.2.56.35,1.14,1,1.36.1,0,.18.17.24.27.27.45.55.89.79,1.36s.45.85,0,1.17a1.68,1.68,0,0,1-1.93-1.16,16.91,16.91,0,0,0-1.21-2.17,6.26,6.26,0,0,1-1.14-3.09,3.1,3.1,0,0,0-.08-.46A5.2,5.2,0,0,0,135.06,97a7.09,7.09,0,0,1-2-2.6,1.46,1.46,0,0,0-1.55-1.06,3.08,3.08,0,0,1-.92-.05c-.5-.17-1-.44-1.51-.16-.08,0-.28-.08-.4-.17-.93-.7-1.85-1.42-2.78-2.12a2.69,2.69,0,0,0-.58-.27c-.2-.08-.47-.1-.6-.25-.87-.94-2-.53-3.1-.77-.12.92-.26,1.72-.3,2.52s0,1.84,0,2.76,0,1.81.07,2.7.41,2.05.5,3.09a10.26,10.26,0,0,0,.78,3.05,8.81,8.81,0,0,1,.5,1.68,7.43,7.43,0,0,1,0,1.21,1.19,1.19,0,0,0,1.28,1.26c1.17,0,2.35-.4,3.51.06a1.2,1.2,0,0,0,.55,0c1.32-.21,2.63-.43,4-.61a4.13,4.13,0,0,1,1.2,0c1.16.18,2.32.38,3.47.63a3,3,0,0,0,2.23-.29,2.35,2.35,0,0,1,.79-.18,3.77,3.77,0,0,0,.65,0c1.17-.4,2.34-.83,3.5-1.25a8,8,0,0,1,1.25-.39,30.84,30.84,0,0,1,5.87-.2,1.28,1.28,0,0,1,.46.09,4.57,4.57,0,0,0,2.21,0,.86.86,0,0,0,.87-.81,1.68,1.68,0,0,1,.34-.61c.14-.21.36-.38.42-.6.3-1,.57-2,.81-3s.44-2.12.68-3.17.53-2,.7-3a8.78,8.78,0,0,1,2.17-4.94,2.58,2.58,0,0,1,.37-.26,5.44,5.44,0,0,1-.58,1.6,4.37,4.37,0,0,0-.45,2.63,4.63,4.63,0,0,1-.33,2.35,6.86,6.86,0,0,0-.28,1,45.71,45.71,0,0,1-1.17,5.18,8.06,8.06,0,0,0-.59,3.15l5.49-1.46c.06-.34,0-.75.2-.92a4.31,4.31,0,0,0,1-2.52,3.68,3.68,0,0,1,1.14-1.92,13.18,13.18,0,0,1,1.5-1.5,20.54,20.54,0,0,1,1.95-1.07c.22-.13.48-.32.54-.54a2.65,2.65,0,0,1,2.46-2.13c.83-.07,1.67-.1,2.51-.18.48,0,.95-.13,1.42-.2a1.27,1.27,0,0,0-.53-.49,10.74,10.74,0,0,1-1.7-1.09c-1.48-1.37-2.89-2.8-4.34-4.2-.94-.9-1.85-1.84-2.85-2.67a3.64,3.64,0,0,1-1.32-1.72c0-.09,0-.21-.1-.26-.68-.47-.43-1.16-.52-1.8l.49-.14c1.41-.38,2.83-.7,4.22-1.14a28.55,28.55,0,0,0,2.66-1.12c2.19-1,4.37-1.95,6.59-2.84a15.62,15.62,0,0,0,3.15-1.59,1.25,1.25,0,0,1,.78-.25c1.36.18,2.79.16,3.94,1.13a.8.8,0,0,0,1,.07c.18-1.06.56-1.33,1.49-1.1s1.94.42,2.89.7a28.55,28.55,0,0,1,2.77,1,14.87,14.87,0,0,1,1.79.94,5.17,5.17,0,0,1,1.62,1c.32.39.58,0,.68-.16l-2.15-4.59.68-.27-.49-.33c0-.51.4-.55.74-.6a25.75,25.75,0,0,1,2.78-.33c2.08-.05,4.17,0,6.25,0a16.66,16.66,0,0,0,3.7-.2c1.23-.3,2.41.2,3.6-.1.07,0,.17.06.25.11.35.19.69.4,1,.58.59.3.62.33.47,1-.08.38-.32.75.08,1.11.07.07,0,.34-.06.51a2.08,2.08,0,0,0,0,.91c.52,1.11.08,2.23.09,3.34,0,.28-.32.59-.55.83a5.4,5.4,0,0,1-.8.57,6.43,6.43,0,0,0-2.91-.66,18.22,18.22,0,0,1-2.66-.38,5.61,5.61,0,0,0-1.1-.08,10,10,0,0,0-1.29.2c-1.32.25-2.63.5-3.94.78a3.65,3.65,0,0,0-.72.32,22.79,22.79,0,0,1,.81,2.15,3.6,3.6,0,0,1,.1,2.42c0,.06,0,.17.08.26.38,1,.78,2.09-.07,3.11,0,0,0,.12,0,.18a.55.55,0,0,0,.18.06,2,2,0,0,1,2.39,1.63A4.7,4.7,0,0,0,206,91.8a14.71,14.71,0,0,0,2.92,2.11,1.24,1.24,0,0,1,.44.33,8.39,8.39,0,0,1,1.73,3.05c.5,1.76.9,3.55,1.33,5.34a1.34,1.34,0,0,1,0,.37,2.12,2.12,0,0,0,.63,1.84s0,.12,0,.23c-.77.36-1.32,1.41-2.51.7l-.13,1.8.65-.05c1.39-.14,2.78-.3,4.17-.43.52,0,1.05,0,1.58-.06.86-.09,1.72-.23,2.58-.36a4.73,4.73,0,0,0,1.79-.3,2.27,2.27,0,0,1,1.94-.3,1.11,1.11,0,0,0,1.14-.19c-.7-.2-.87-.73-1.09-1.23a3.81,3.81,0,0,1-.34-2c.22-1.87.3-3.76.41-5.65.05-.93.07-1.87,0-2.8a2,2,0,0,0-.51-1.35,2.39,2.39,0,0,1-.58-1.88c.25,0,.48-.11.71-.14,1.48-.18,3-.32,4.43-.53a41.57,41.57,0,0,1,6.85-.71,17.29,17.29,0,0,1,2.51.13,3.5,3.5,0,0,0,1.36,0,3.41,3.41,0,0,1,1.83.08,9.06,9.06,0,0,0,1.93.23c.18,0,.4,0,.54.05.56.33,1.09.71,1.62,1.07,0,.11,0,.2,0,.3a7.23,7.23,0,0,1-.63,2.32c-.47,1.49-.88,3-1.3,4.49-.23.8-.39,1.63-.66,2.41a3.51,3.51,0,0,1-1.25,1.77,1.62,1.62,0,0,1-1.34.17,1.84,1.84,0,0,0-.82.1c-.63.17-1.24.4-1.86.57a25.31,25.31,0,0,0-5.7,2.76c-.45.26-.52.49-.28.91a16.65,16.65,0,0,0,1,1.59c1.26,1.73,2.53,3.44,3.83,5.14.53.69,1.15,1.3,1.73,1.95l2,2.21c.16.18.3.36.53.64l.94-1.25a14.68,14.68,0,0,1,1.12-1.46,3,3,0,0,0,.72-1.06,4,4,0,0,1,1.47-1.93.65.65,0,0,1,.95.07,46.89,46.89,0,0,1-3.73,6.83A20.36,20.36,0,0,0,243,122.2a28.18,28.18,0,0,1,3.45,3.19,12.53,12.53,0,0,1,.83,1c.29.39.52.84.85,1.2a21.85,21.85,0,0,0,2.42,2.44,6.84,6.84,0,0,1,1.47,2c.69,1.11,1.45,2.17,2.22,3.22a42,42,0,0,1,2.83,3.58,6.55,6.55,0,0,0,1.43,2,6.07,6.07,0,0,1,1.23,1.61,27.62,27.62,0,0,0,2.19,2.77c.29.35.63.67.88,1a9.23,9.23,0,0,0,1.14,1.8,14.23,14.23,0,0,1,1.4,1.6c.55.67,1,1.4,1.52,2.12a10.2,10.2,0,0,0,.82,1.33,10.35,10.35,0,0,1,1.14,1.65,11.76,11.76,0,0,0,1.29,1.82c1,1.08,2.09,2.1,3.17,3.12a1,1,0,0,1,.3,1.32,5.14,5.14,0,0,0-.19.56,2,2,0,0,0,.48.12c1.15-.05,2.3-.2,3.44-.16a5.7,5.7,0,0,1,2.17.18c1.84.79,3.85.65,5.79.87a.86.86,0,0,0,.89-.52c.61-1,1.24-2.08,2-3.05a10.59,10.59,0,0,0,2.22-3.87,8.75,8.75,0,0,0,.3-3,11,11,0,0,1,.45-4.59c.2-.69.63-1.36.2-2.12-.06-.1,0-.29.09-.52a10,10,0,0,1,1.11,0,2.32,2.32,0,0,0,1.8-.55c.72-.59,1.41-1.21,2.14-1.78a11.16,11.16,0,0,1,2.5-1.89.61.61,0,0,0,.26-.26,10.53,10.53,0,0,1,2.86-2.9,4.46,4.46,0,0,0,.63-.68c1.42-1.73,2.79-3.49,4.28-5.16a3.38,3.38,0,0,0,.93-1.33,6.59,6.59,0,0,1,1-1.86c.07-.14.15-.27.21-.42.42-1,.42-1-.34-1.73a1.28,1.28,0,0,1,0-2.08c.3-.32.62-.61.9-.94a2.91,2.91,0,0,0,.27-.73c-.58.18-.94.32-1.32.4s-.79.26-1.12-.14-.7-.79-1-1.22a3.11,3.11,0,0,0-1.5-1.29,3.49,3.49,0,0,1-1.12-1,10.52,10.52,0,0,0-1.78-1.62,16.38,16.38,0,0,1-1.79-1.49c-.67-.59-1.32-1.21-2-1.82a2.63,2.63,0,0,1-2.56,1.11,3.44,3.44,0,0,0-1,.14l-.44-.3c-.83-.52-1.17-.41-1.48.54a7.63,7.63,0,0,0-.22,1.18c-.13.8-.19,1.72-.88,2.18A21.27,21.27,0,0,0,289,121.7a1,1,0,0,0-.27,1.3,3.67,3.67,0,0,1,.39,3,1.57,1.57,0,0,0,.31,1.41,3.44,3.44,0,0,1,.55.86,2.55,2.55,0,0,1,.15,1.25,14.29,14.29,0,0,1-.7,2,.6.6,0,0,0,.29.86,2.3,2.3,0,0,0,.6.25,2.81,2.81,0,0,1,1.66,1.13,5.69,5.69,0,0,0,.5.54c.57.52,1.17,1,1.72,1.56.2.2.45.56.39.77-.22.81-.34,1.7-1.16,2.2-.14.08-.18.31-.29.45a1.35,1.35,0,0,1-.43.4c-1.27.57-1.28.57-2.07-.59-.09-.13-.19-.25-.27-.38a.57.57,0,0,1,.19-.88,9.45,9.45,0,0,0,.92-.78c.37-.35.37-.57,0-.93-.16-.15-.41-.24-.49-.42-.34-.8-1-1-1.78-1.2a2.92,2.92,0,0,1-1.11-.44,3.19,3.19,0,0,1-.77-4.17,1.86,1.86,0,0,0,0-2,3.44,3.44,0,0,1-.72-2.72c.1-.36-.11-.65-.54-.85a4.61,4.61,0,0,1-1.25-1,1.68,1.68,0,0,0-.92-.57,1.07,1.07,0,0,1-.63-.45c-.64-1-1-1.11-2.17-.74a3.53,3.53,0,0,1-1.18.08c-.74,0-1.48-.12-2.22-.14-.18,0-.36.16-.61.27l.48.65-.34,1.53c-.42-.44-.79-.89-1.22-1.27a1.46,1.46,0,0,1-.41-2.08,10.76,10.76,0,0,0,.72-1.27c.09-.16.16-.4.3-.46.87-.34.62-1.25,1.09-1.82a2.1,2.1,0,0,0-1.7,0c-.86.16-1.16-.07-1.11-.94,0-.25.12-.49.14-.73a4.59,4.59,0,0,0-.08-.74,2.62,2.62,0,0,1-2.68-.13,2.48,2.48,0,0,0-.6-.27,1.65,1.65,0,0,0-1.61.09,3.44,3.44,0,0,1-1.3.63l-.09,1.25a4.47,4.47,0,0,0-.73.36.87.87,0,0,0-.35.48,10.48,10.48,0,0,1-1.78,3.76,2.3,2.3,0,0,0-.36,1.1,6.17,6.17,0,0,1-.19,1.74,12.34,12.34,0,0,1-1.1,2.24,11.73,11.73,0,0,1-1.11,1.36c-.59.71-.38,1.25.52,1.44a9.07,9.07,0,0,1,1.15.37c.73.26,1.45.56,2.2.77a2.3,2.3,0,0,1,1.16.53.9.9,0,0,0,.66.12c.27,0,.53-.21.8-.25a3,3,0,0,1,1.34-.07c.55.19.79,0,1.08-.39a3.41,3.41,0,0,1,.91-.9,21,21,0,0,1,1.92-1c.82-.39,1.07-.29,1.48.56-.27.43-.52.85-.79,1.26a.7.7,0,0,1-.34.31,5.86,5.86,0,0,0-2.74,1.84c-.43.43-.91.75-1.54.3.09,1,.14,1.93.26,2.85a4.59,4.59,0,0,1-.38,2.86c.55,0,1,.08,1.46.08A11.92,11.92,0,0,1,276,139c.14,0,.23.21.36.3.68.49,1.34,1,2.05,1.45a1.12,1.12,0,0,0,1.56-.24,2.12,2.12,0,0,1,1.9-.77c.21,0,.43-.05.65,0,1.75.12,3.52.06,5.15,1,.43.24.85.74,1.52.52a2.74,2.74,0,0,1,2.17.24,1.23,1.23,0,0,1,.66,1.5,1.18,1.18,0,0,1-1.65.64,1.66,1.66,0,0,0-.58-.16,4.51,4.51,0,0,1-.63,0,5.87,5.87,0,0,1-2.66-1.29,1.2,1.2,0,0,0-.76-.31c-1,0-2,0-3,.08a1.09,1.09,0,0,0-.51.17,7.31,7.31,0,0,0-1.13.79c-.88.83-1.83.43-2.7.1a4.83,4.83,0,0,0-1.38-.48.81.81,0,0,1-.43-.15c-.64-.53-1.26-1.09-1.91-1.62a2,2,0,0,0-1.29-.68c-1,0-2,0-3.06,0a1.31,1.31,0,0,1-1-.41c-.32-.3-.77-.69-1.15-.68-1.4,0-2.84-.34-4.18.36a1.58,1.58,0,0,1-.27.07,4.16,4.16,0,0,0-2.43,1.61,1.11,1.11,0,0,1-1.23.63c-.3-.47-.62-.93-.9-1.41a1.15,1.15,0,0,1,.31-1.42c.55-.26,1.13-.48,1.7-.7s1.32-.5,2-.73a4.35,4.35,0,0,1,2.26-.41,5.12,5.12,0,0,0,2.49-.16c.4-.13.66-.32.66-.78q0-1.06,0-2.12c0-.76-.2-.93-1-.93-.62,0-1.19-.06-1.51-.8a2,2,0,0,0-1.41-1.14c-.63-.14-1.27-.29-1.91-.4a2,2,0,0,1-1.45-.73,9.49,9.49,0,0,1-1.41-3l.39-.27a5,5,0,0,0,2-2.63.54.54,0,0,1,.09-.16,2.76,2.76,0,0,0,.52-2.55c-.15-.58-.08-.94.48-1.22a1.49,1.49,0,0,0,.56-.6,13.63,13.63,0,0,0,1-2,10,10,0,0,0,.48-2.17,1.28,1.28,0,0,0-.3-.93c-.4-.41-.89-.73-.92-1.39-.69-.5-.84-1.38-1.36-2a3,3,0,0,1-.81-2.48c-.3-.42-.88-.47-.83-1.06a2.11,2.11,0,0,1,1.45-.21c1.44.21,1.66.47,1.58,1.95,0,.51,0,.92.6,1.11a.59.59,0,0,1,.34.3,3.4,3.4,0,0,0,1.09,1.41,1.49,1.49,0,0,0,1.22.48,5.27,5.27,0,0,0,1.34-.32,5.09,5.09,0,0,1,3.63,0,3.27,3.27,0,0,0,1,.18,18.21,18.21,0,0,0,2.33-.05,2.33,2.33,0,0,0,1.43-.48,5.05,5.05,0,0,1,2.19-1.47,5.4,5.4,0,0,1,3-.11,2,2,0,0,0,1.94-.59,2.89,2.89,0,0,1,2.52-.52,1.62,1.62,0,0,1,1.13,1.32c0,.48-.84,1.34-1.35,1.25a3,3,0,0,0-2,.57,2.18,2.18,0,0,1-1,.32c-.8,0-1.59-.06-2.39-.08-.3,0-.61.07-.91.07-.52,0-.78.52-1.19.62a8,8,0,0,0-2.1,1.29s0,.16,0,.38a3.06,3.06,0,0,1,2.57,1.57c.78,1.07-.17,1.93-.63,3a6,6,0,0,0,1.08.12c.46,0,.92-.17,1.37-.25a2.72,2.72,0,0,1,2.28.57,3.85,3.85,0,0,0,2.38,1.28c1.21-.94,2.56-2,3.88-3a1.23,1.23,0,0,0,.36-.71c.06-.36,0-.75,0-1.12s.1-.7.29-.82c.61-.37.57-.91.56-1.47a4.13,4.13,0,0,1,0-.84.68.68,0,0,1,.36-.46,1.84,1.84,0,0,1,2,.4,4.5,4.5,0,0,0,.38.32c.09,0,.13,0,.15-.06a1,1,0,0,0,.18-.21,2.59,2.59,0,0,1,2.39-1.58,3.33,3.33,0,0,1,2.75.82c.6.62,1.12,1.32,1.68,2a6.36,6.36,0,0,0,.68.73c.95.8,2,1.54,2.85,2.39a7.08,7.08,0,0,0,2.34,1.46c1.39.54,1.39.53,1.86,1.77a8.41,8.41,0,0,1,1.59-.63,10.85,10.85,0,0,1,1.89,0,3.69,3.69,0,0,1,1.54-1.87,1.32,1.32,0,0,0,.49-.62c.19-.88.33-1.77.46-2.66a4.12,4.12,0,0,1,1.13-2.5,4.38,4.38,0,0,0,.55-.75c.49-.75,1-1.5,1.4-2.29a1.71,1.71,0,0,0,.12-1.75c-.36-.59-.78-1.23-1.73-1.16a5.79,5.79,0,0,1-3.35-1c-.94-.55-1.81-1.21-2.76-1.74a10.64,10.64,0,0,0-3.08-1.41,11.11,11.11,0,0,1-.36,1.17,9,9,0,0,1-4.65,4.74c-1.49.69-3,1.32-4.55,1.92a5.63,5.63,0,0,1-2.66.34,1.38,1.38,0,0,1-1.3-1.25A13,13,0,0,0,292,105c-.37-.74-.76-1.48-1.14-2.22a1.56,1.56,0,0,1,.21-1.66A5.13,5.13,0,0,1,294,99.56a1.7,1.7,0,0,0,1.59-1.22,1.56,1.56,0,0,1,.22-.41A10.88,10.88,0,0,0,297.35,94a1.77,1.77,0,0,0,0-.48l-2-1.48a9.94,9.94,0,0,0-4-1.86c-.92-.17-1.82-.39-2.73-.61a3.92,3.92,0,0,1-1.89-1c-.62-.59-1.28-1.14-1.92-1.71l.2-1a2,2,0,0,1,.84-1.35,18.18,18.18,0,0,0,1.68-1.46,2.88,2.88,0,0,1,.56-.48c1.11-.55,2.25-1,3.34-1.61a22.47,22.47,0,0,0,1.94-1.29L292.1,78a1,1,0,0,1-.17-1,1.82,1.82,0,0,0-1.1-2.45l-1.77.41a1.68,1.68,0,0,0-.61.21c-.51.39-1,.8-1.49,1.23a1.61,1.61,0,0,1-2.58-.13,1.66,1.66,0,0,0-1.64-.6c-.45.09-.93,0-1.4.09a6.59,6.59,0,0,0-3.46,1.44,3.82,3.82,0,0,1-3.41,1.07l-.6-1.27c-.17-.35-.1-.6.28-.73s.88-.28,1.3-.45A10.29,10.29,0,0,0,278,74.74a3.58,3.58,0,0,1,1.48-.51,10,10,0,0,0,2.77-.78,2.33,2.33,0,0,1,3,.77,1.64,1.64,0,0,0,.26.23c.27-.19.5-.46.76-.51.91-.17,1.6-.81,2.46-1.05a.55.55,0,0,0,.27-.24,5.72,5.72,0,0,0,1-3.62,6.14,6.14,0,0,0-.21-.86c.58-.63,1.46-.81,1.91-1.6l-.81-.49a5.67,5.67,0,0,1,.17-.56c.29-.7.15-1-.57-1.23a2.45,2.45,0,0,0-.55-.06c-1,0-2-.06-3.06,0a9.85,9.85,0,0,0-3.38.8c-.83.35-1.66.7-2.51,1s-1.35.18-2-.62a1.71,1.71,0,0,0-.78-.61c-1-.29-2.11-.52-3.18-.71a2.4,2.4,0,0,0-1.46,0,8.19,8.19,0,0,1-3.15.78l-.63-1.33a2.93,2.93,0,0,1-2.21-.46,17.83,17.83,0,0,0-4.49-1.2,1.23,1.23,0,0,1-.54-.13,4.72,4.72,0,0,1-2-2.22,13.09,13.09,0,0,0-2.32-3.86,2.8,2.8,0,0,1-.06-3.75,12,12,0,0,0,2.4-4.77.74.74,0,0,1,.34-.51c.47-.16.63-.55.84-.93a1,1,0,0,1,1.07-.57c1.13.27,2.25.6,3.35.95A16,16,0,0,1,271,48.2a.85.85,0,0,0,.17.08c1.3.58,2.62,1.12,3.9,1.75A11.94,11.94,0,0,1,277,51.25,3.78,3.78,0,0,1,277.57,52Zm41.76-4.68a10.12,10.12,0,0,0-1.23.34.63.63,0,0,1-.91-.35c-.11-.21-.19-.43-.29-.67.77-.38,1.47-.79,2.21-1.09a1.51,1.51,0,0,1,1.9.54,2.24,2.24,0,0,0,.63.53q1.44.75,2.91,1.45a1.55,1.55,0,0,1,.77.71,2.83,2.83,0,0,0,2.8,1.76c.68-.06,1-.37.62-1s-.92-1.39-1.38-2.09a1.22,1.22,0,0,1-.1-.25l.5-.35a6.3,6.3,0,0,1-.39-1.71,9.29,9.29,0,0,0-1.2-4.33c-.57-1.3-1.23-2.56-1.69-3.93a10,10,0,0,0-1.4-2.62,11.12,11.12,0,0,1-1-1.93,1.11,1.11,0,0,1,0-.53c0-.19.17-.49.1-.55a1,1,0,0,0-.65-.23c-.62,0-1.24.11-1.86.15-1,.06-2,.06-3,.16-.7.06-1.39.24-2.07.36.46,1.71,1,3.36.26,5.13.32,0,.56.07.8.12.5.12,1.16.92,1,1.36-.21.6.11,1,.3,1.46.27.71.85,1.39.49,2.26-.11.27.07.44.29.61s.56.41.6.67a1.5,1.5,0,0,1-1.78,1.91.79.79,0,0,1-.47-.26c-.5-.63-1-1.27-1.44-1.93s-.42-.77.05-1.31a.93.93,0,0,0,.18-1c-.31-.94-.61-1.89-1-3a17.61,17.61,0,0,0-1.79,0c-1.24.12-2.46.38-3.7.45a13.6,13.6,0,0,0-4.66,1.19c-.82.36-1.51.73-2.25-.17a1.64,1.64,0,0,0-.15.42,3.75,3.75,0,0,1-.49,2.33c-.18.27,0,.54.27.68l.81.37-1,1.78c.51.56,1,.95,1.73.6a1.52,1.52,0,0,1,1.08-.1,10.47,10.47,0,0,1,3.37,1.74,3.63,3.63,0,0,0,.9.43,4.45,4.45,0,0,1,1.44.78,3.54,3.54,0,0,0,1.78,1.1,1.4,1.4,0,0,1,.95.68,1.54,1.54,0,0,0,1.43.72l1.92.11a4.87,4.87,0,0,1,.67,1.37,6,6,0,0,1-.27,1.64,8.76,8.76,0,0,0,1,.1c.4,0,.81-.08,1.21-.09a2.19,2.19,0,0,1,2.34,1.83l-.54.58c.44.38.84.71,1.22,1.07.66.6,1.31,1.21,1.95,1.84s1.56.94,2.13,1.69c.09.12.33.14.51.19a10.06,10.06,0,0,1,1.78.48A7.92,7.92,0,0,1,331.21,65a16.57,16.57,0,0,0,2,2.4s.12,0,.24,0a1.66,1.66,0,0,0,0-.42c-.45-1.68-.93-3.35-1.35-5-.36-1.45-.71-2.9-1-4.37a21.45,21.45,0,0,0-.92-3.5.69.69,0,0,0-.83-.55,13,13,0,0,1-1.32,0c-.17-.68-.6-.8-1.21-.77a2,2,0,0,1-1.32-.28c-1-.86-1.81-1.83-2.72-2.78a4,4,0,0,1-1.42-.39A22,22,0,0,1,319.34,47.35ZM296.65,78.6l.26-.17c1.08-.73,1.3-.7,2,.4a4.51,4.51,0,0,0,1.82,1.8,11,11,0,0,1,3,2.35,2.75,2.75,0,0,1,1,1.79,2.33,2.33,0,0,0,.79,1.64,2.3,2.3,0,0,1,.37.63c1.15,2,2.29,4,3.46,6.06.4.68.66.68,1.24.21a3.35,3.35,0,0,1,1.1-.65,21.79,21.79,0,0,1,2.16-.44,1.33,1.33,0,0,1,.46,0,1.8,1.8,0,0,0,1.9-.86c.47-.64,1.1-1.16,1.57-1.79s.93-1.44,1.38-2.16a3.93,3.93,0,0,0,.33-.67,9.49,9.49,0,0,1,.5-1.37,2.68,2.68,0,0,0,.29-1.52,5.83,5.83,0,0,1,1.07-3.75,2.18,2.18,0,0,0,.28-2,6.54,6.54,0,0,1-.15-1.63c0-.34.11-.67.12-1A2.47,2.47,0,0,0,319.74,73a7.62,7.62,0,0,0-1.47-.21,11.53,11.53,0,0,1-4.06-.87c-.65-.28-1.26-.69-1.92-.92a3.4,3.4,0,0,0-1.89-.31c-.49.15-.82.87-1.21,1.33a1,1,0,0,0-.09.16,3.33,3.33,0,0,1-1.62,1.49l-2.42,1a.15.15,0,0,0,0,.1c0,.31.1.61-.27.79s-.58,0-.82-.22a2.32,2.32,0,0,0-.55-.31,2.51,2.51,0,0,1-1.16-1,6,6,0,0,0-1.31-1.42,20.33,20.33,0,0,1-3.46-3.1,2.38,2.38,0,0,0-1.35-.92,2.65,2.65,0,0,1-1.8-1.31l-.33-.43a3.4,3.4,0,0,0-.76.52c-.35.42-.63.89-1,1.4a4.74,4.74,0,0,1,.31.75,1.76,1.76,0,0,1,.06.9c-.24.73-.57,1.44-.85,2.16a2.91,2.91,0,0,0-.09.57,3,3,0,0,1,2.11,1.15c.66.87,1.33,1.81.9,3-.14.39,0,.56.37.67S296,78.36,296.65,78.6ZM120.79,68.65l.45.13c.87.21.9.24,1,1.09,0,.22,0,.43,0,.65a8,8,0,0,0,.36,2.28,5.93,5.93,0,0,1,.5,3.55,7.85,7.85,0,0,0,.24,4.29,2.57,2.57,0,0,1,0,1.19c-.2,1.19-.4,2.39-.68,3.56-.24,1,.44,1.57.74,2.33,0,.08.2.13.32.16a9,9,0,0,1,3.68,1.86,6.92,6.92,0,0,0,2.74,1.52c.92.19,1.88.26,2.82.36.1,0,.21-.12.32-.16.66-.26.86-.94,1.29-1.42a4.8,4.8,0,0,1,3.3-1.82c.7,0,1.4-.15,2.19-.24a7.13,7.13,0,0,1-.25-.87,2.15,2.15,0,0,1,0-1,2.53,2.53,0,0,0-.37-2.37c-.85-1.36-2-2.5-2.64-4a2.77,2.77,0,0,0-.52-.76,3.39,3.39,0,0,1-.57-4,1.63,1.63,0,0,0,.06-1.27c-.27-.79-.48-1.6-.77-2.37a10.55,10.55,0,0,0-.85-1.85A3.33,3.33,0,0,0,133,68.4c-.26-.15-.71,0-1.08.08s-.8.1-1.21.11a.94.94,0,0,1-1.06-.91,3.59,3.59,0,0,1,.06-.68c-.29,0-.54,0-.78,0l-4.27.36a10.36,10.36,0,0,1-2,.16A1.69,1.69,0,0,0,120.79,68.65Zm-.39.76c-.24.22-.44.37-.6.56-.66.74-1.26,1.54-2,2.22-1.75,1.67-3.54,3.29-5.32,4.92a6.89,6.89,0,0,0-2.5,4.63,7.62,7.62,0,0,1-1.34,4.4s0,.11.06.21l.42.11a.45.45,0,0,1,.38.63c-.08.27-.28.54,0,.76a2.55,2.55,0,0,0,.8.43,4.38,4.38,0,0,0,2.22,0,2.67,2.67,0,0,1,.92-.08,5.3,5.3,0,0,1,2.88,1.23,1.31,1.31,0,0,0,1.28.3,1.72,1.72,0,0,1,2.08.7c.25-2.24.52-2.43,2-2.73a4.2,4.2,0,0,1-.31-.66,4.51,4.51,0,0,1-.31-1.44,12.78,12.78,0,0,1,.43-2.57,7.15,7.15,0,0,0,.1-3.39,8.47,8.47,0,0,1-.09-3.94,2.1,2.1,0,0,0-.06-.91C121.12,73,120.77,71.27,120.4,69.41Zm77.84,10.44a4.27,4.27,0,0,1-2.91-1.47c-.09-.1-.28-.11-.43-.17-.51-.21-1.09-.3-1.34-.91a.54.54,0,0,0-.38-.23c-1.08-.16-2-.87-3.07-1a19.67,19.67,0,0,1-2.89-.74,2.36,2.36,0,0,1,.37.53A15,15,0,0,1,188.69,80a29.49,29.49,0,0,0,.93,4.84,14.78,14.78,0,0,1,.63,5.22,4.6,4.6,0,0,0,.14,1.14,17.16,17.16,0,0,0,2.32-.45c1.82-.62,3.61-1.34,5.42-2a7.86,7.86,0,0,1,1.25-.24c.47-.09,1,0,1.36-.49a5.16,5.16,0,0,0-.35-.54,1,1,0,0,1-.16-1.28c.09-.16,0-.45-.08-.67a4.65,4.65,0,0,1-.28-.95,10.88,10.88,0,0,1,.15-1.47,3.47,3.47,0,0,1-.64-.75A17.32,17.32,0,0,0,198.24,79.85ZM95.69,99.62a3,3,0,0,0,.82-.13,7.2,7.2,0,0,1,2.81-.58,8,8,0,0,0,2-.54c.6-.24,1.11-.72,1.72-.89a12,12,0,0,0,3.58-2,2.53,2.53,0,0,1,2.06-.6,2,2,0,0,0,2.3-1.11c.84-1.33,1.59-2.77,3.17-3.43,0,0,0-.11,0-.27a9.06,9.06,0,0,0-1.08-.09c-.53,0-1.05.11-1.58.14-1.5.08-2.88-.1-3.62-1.68-.09-.18-.4-.41-.55-.37-.73.19-1.18-.25-1.67-.62A5.5,5.5,0,0,0,102,86.26c-1.77.06-2.68.77-2.94,2.49a32.39,32.39,0,0,0-.31,3.53A11.14,11.14,0,0,1,98,95.89a9.5,9.5,0,0,1-1.72,2.85A7.34,7.34,0,0,0,95.69,99.62ZM334,78.85a3,3,0,0,0,.17-2.28,12.26,12.26,0,0,1-.63-2.13c-.19-1.16-.3-2.34-.39-3.51a2.29,2.29,0,0,0-.59-1.33c-.57-.69-1.13-1.39-1.69-2.08a1.71,1.71,0,0,0-.39-.4,3.52,3.52,0,0,1-1.09-1.37,7.29,7.29,0,0,0-.54-.75,6.09,6.09,0,0,0-3.2-1.79,3.36,3.36,0,0,1-1.29-.69,1.32,1.32,0,0,0-1.59-.23c.38.28.76.43.94.71a7.08,7.08,0,0,0,1.79,2.1,1.5,1.5,0,0,1,.29.36c.28.37.54.76.83,1.12a14.45,14.45,0,0,1,2,2.65c.19.39.29.71,0,.94a9.92,9.92,0,0,0,1,1.34,13,13,0,0,1,2.42,3.37,30.76,30.76,0,0,0,1.45,2.77A5.91,5.91,0,0,1,334,78.85Zm-3.49,15.66c1.47-.41,2.46-1.35,3.78-1.77-.26-1,0-2.12-.73-3.18a6.7,6.7,0,0,0-.88.95c-.57,1-1.1,1.94-1.63,2.91C330.87,93.7,330.73,94,330.49,94.51Zm5.46-6.74-.24,0c-.06.2-.21.43-.15.58.3.75.15,1.63.68,2.46.16-.35.38-.61.33-.78A7.76,7.76,0,0,0,335.95,87.77ZM170.79,95.2a1.24,1.24,0,0,0,1.37-.48A1.19,1.19,0,0,0,170.79,95.2Zm5.76-.89,0-.29-1,.12,0,.26Zm25.75-4.84c-.1.16-.22.29-.19.34a.76.76,0,0,0,.3.26s.2-.17.19-.22A1.66,1.66,0,0,0,202.3,89.47ZM142.7,49.09c.64.1.64.1.91-.4Zm107.74,84.45.17-.14-.39-.53-.12.09ZM287.92,87c-.11-.13-.16-.23-.25-.28s-.14.05-.21.09a1,1,0,0,0,.16.27S287.76,87,287.92,87Z"/><path d="M219.37,53.48l1.88.36-.13-1.6a1.58,1.58,0,0,1,1.28-.08,2.45,2.45,0,0,0,1.18.06,2.41,2.41,0,0,1,1.55.15,1.46,1.46,0,0,0,.62.12,1.64,1.64,0,0,1,1.32.58,2,2,0,0,0,1.39.69c1.11.12,2.23.24,3.35.3a21.89,21.89,0,0,1,4.37.31l4.23,1.09.63.16a1.4,1.4,0,0,1,1.1,2.09,1.42,1.42,0,0,0,0,1c.33,1.7.63,3.41,1,5.11a4.24,4.24,0,0,0,1,2.16,1.15,1.15,0,0,1-.13,1.71,1.13,1.13,0,0,0-.52,1.14,2.73,2.73,0,0,1-2.71,2.78c-1.12.05-2.24,0-3.36.1-.4,0-.79.16-1.19.2A13.17,13.17,0,0,1,234,72a23.38,23.38,0,0,0-4.16.32c-1.51.15-3,.35-4.51.49a2.07,2.07,0,0,1-1.17-.16,1.76,1.76,0,0,0-1-.3.91.91,0,0,1-.49-.2,8.19,8.19,0,0,1-.95-.73,1.41,1.41,0,0,1-.41-.61,6.8,6.8,0,0,1-.46-3.28,9.68,9.68,0,0,0-.21-3.31,4.11,4.11,0,0,1-.1-1.11,9.07,9.07,0,0,0-.32-3.55,1.8,1.8,0,0,1-.11-.55c.19-1.62-.43-3.1-.77-4.63A3.83,3.83,0,0,1,219.37,53.48ZM229,57.86c-.46-.31-.46-.31-.88,0A.62.62,0,0,0,229,57.86Zm1.15-.14V58l.46,0c0-.05,0-.15,0-.15Z"/><path d="M221.09,77.91c-.21,1.3-1.14,1.68-2.15,2l-1.7.48a1,1,0,0,1-1.19-.6c-.25-.49,0-.76.38-1a2.72,2.72,0,0,1,1.52-.62,1.9,1.9,0,0,0,1.45-.53c.15-.17.56-.12.85-.13a3.72,3.72,0,0,1,.67.11c0-.23.07-.41.09-.58s0-.31,0-.36c.58-.46,1-1.12,1.76-1.33s1.68-.42,2.53-.63a10,10,0,0,1,1.45-.33c2.76-.25,5.52-.51,8.28-.67a48.13,48.13,0,0,1,5.22,0,22.45,22.45,0,0,1,3.31.56,1.79,1.79,0,0,1,1,1.83c-.23.59,0,1.32-.59,1.79a.2.2,0,0,0,0,.18,17.17,17.17,0,0,0,.84,2c.14.25.53.39.83.53s.73.27,1.05.39c.19,1.16-.52,1.82-1,2.57S244.48,85.13,244,86A2.13,2.13,0,0,1,242,87.2c-1.46.06-2.92.16-4.38.24l-1.75.08c-1.36.06-2.72.14-4.09.18a39.18,39.18,0,0,0-5.89.89,2.81,2.81,0,0,0-.9.46,1.41,1.41,0,0,1-1.79,0,6.12,6.12,0,0,1-1.65-2.57.72.72,0,0,1,.06-.53,4.48,4.48,0,0,0,.16-3.08,23,23,0,0,1-.23-2.5c-.08-.71-.2-1.41-.31-2.11C221.25,78.09,221.15,78,221.09,77.91Z"/><path d="M248.56,81.26l1-.6a2.61,2.61,0,0,1,2-.28,6.58,6.58,0,0,0,4.12-.19,1.1,1.1,0,0,1,.62,0,2,2,0,0,0,1.94-.35,1,1,0,0,1,.58-.24,1.84,1.84,0,0,0,1.06-.51,1.89,1.89,0,0,1,2-.41c1.21.64,2.36.26,3.54,0,.51-.13,1-.23,1.53-.39a4.26,4.26,0,0,0,1-.44,1.28,1.28,0,0,1,1.23-.15,7.46,7.46,0,0,0,1.5.45c.67.1,1,.61,1.41,1,.11.1.09.42,0,.61a4.8,4.8,0,0,0-.19,2c0,.46-.07.93-.06,1.39S272,84.37,272,85q.13,1.43.28,2.86a12.91,12.91,0,0,1,.16,1.46c0,1-.09,2-.14,3.11a2.05,2.05,0,0,0,.61,0,4,4,0,0,0,2.17-1.35,1.21,1.21,0,0,1,1.21-.51,5.37,5.37,0,0,1,3.7,1.61,1.16,1.16,0,0,0,.22.18,1,1,0,0,0,.2.07c1.41-.79,2.85-1.58,4.27-2.4a2.61,2.61,0,0,1,2.2-.15,2.85,2.85,0,0,1-1,1.65A12,12,0,0,1,284,92.73a8.26,8.26,0,0,0-1.57,1.15L280.6,95.3c-.17.13-.37.23-.53.37-.54.46-.82.44-1.18-.13a1.38,1.38,0,0,1-.23-.69,1.81,1.81,0,0,0-1.47-2,3,3,0,0,1-.45-.22l-1.13.83a7.55,7.55,0,0,1-.85.57,1.48,1.48,0,0,0-.89,1.22,1.2,1.2,0,0,1-.33.64.55.55,0,0,1-.89,0c-.57-.68-1.22-1.34-.71-2.36,0,0,0-.12,0-.17s0,0-.07-.07a10.31,10.31,0,0,1-5.67,2,33,33,0,0,0-4,.74,2.42,2.42,0,0,1-2.35-.62,12.72,12.72,0,0,1-1.89-2.71,1,1,0,0,1,.13-1.21c.88-1.12,1.72-2.28,2.56-3.43a1,1,0,0,0,.18-.52c.08-2.07.14-4.15.21-6.26a2.12,2.12,0,0,0-2.05.48,1.75,1.75,0,0,1-1.56.46c-.27,0-.54-.22-.74.13a.25.25,0,0,1-.23,0c-.27-.32-.56-.11-.86-.07a7.87,7.87,0,0,1-2.87.11c-.39-.08-.8-.1-1.18-.2a1.26,1.26,0,0,0-1.28.37c-.27.26-.55.48-.9.28s-.76-.46-.7-1A3.17,3.17,0,0,0,248.56,81.26Z"/><path d="M195.14,46.62a16.4,16.4,0,0,1,2.09.17,3.77,3.77,0,0,0,1.35.05,3.73,3.73,0,0,1,1.73.17,13.49,13.49,0,0,1,3.77,2.11c.63.5,1.23,1,1.81,1.59a.63.63,0,0,0,1,.06,14.79,14.79,0,0,0,1.26-1.23c.48-.55.69-.68,1.37-.45a20.17,20.17,0,0,0,2.61.59A2.35,2.35,0,0,1,214.05,51a1.61,1.61,0,0,0,1.4.94,2.32,2.32,0,0,1,1.9,1.46.85.85,0,0,1-.87,1.15,3.32,3.32,0,0,1-.68-.28c-.42-.18-.84-.38-1.28-.53A4.64,4.64,0,0,1,212.39,52a1.16,1.16,0,0,0-.8-.52,2.9,2.9,0,0,1-.64-.13,1.85,1.85,0,0,0-2.52.58,3.33,3.33,0,0,1-1.43,1,1.78,1.78,0,0,1-1.18,0,6.18,6.18,0,0,1-2.42-1.61,6.87,6.87,0,0,0-3.79-2.4,1.46,1.46,0,0,0-.83,0,4.54,4.54,0,0,1-2.56.13A1.34,1.34,0,0,1,195,47.12C195,47,195,46.89,195.14,46.62Z"/><path d="M247.47,69.8c-.5-.16-1.06-.25-1.14-.83a1.46,1.46,0,0,1,.69-1.33,7,7,0,0,1,3.26-1.41,5.94,5.94,0,0,0,2.52-1.14,1.65,1.65,0,0,1,2.14,0c.54.44,1.07.1,1.58.3A1.52,1.52,0,0,0,258,65a.84.84,0,0,1,.58-.17,2.74,2.74,0,0,0,2-.44,1.76,1.76,0,0,1,1.33-.21,6.86,6.86,0,0,0,1.67.05c.37,0,.74-.08,1.11-.09s.72,0,1.13,0c.09.55.34,1.08,0,1.39l-4.74.88-1.91.38a5.23,5.23,0,0,0-.92.17,4.16,4.16,0,0,1-2.26.35,2,2,0,0,1-.83-.22,1.8,1.8,0,0,0-1.77-.17c-1.05.44-2.14.81-3.24,1.15A5.65,5.65,0,0,0,247.47,69.8Z"/><path d="M241.37,103.77c.34-1.4,1.27-1.83,2.93-1.44a2.12,2.12,0,0,0,.77,1.21,5.39,5.39,0,0,0,1.69.94,4.4,4.4,0,0,0,2.63.55,1.11,1.11,0,0,1,.53.16c.64.26.81.51.59,1.15a1.36,1.36,0,0,0,0,1.31c.24.37,0,.74-.21,1-.4.51-.84,1-1.26,1.46-.08,0-.15,0-.2,0a1.52,1.52,0,0,0-2,.63,1.77,1.77,0,0,1-1.29.82c-.58.05-1-.11-1.07-.6s.3-1,.69-1c1.41.14,2-.75,2.62-1.79a3.16,3.16,0,0,1,.29-.36c.32-.41.23-.75-.23-.92s-1.1-.41-1.66-.58a1.14,1.14,0,0,0-.61.07,1.72,1.72,0,0,1-2.22-1.53c-.06-1-.07-1-1-1A5.5,5.5,0,0,1,241.37,103.77Z"/><path d="M261.2,97.66a3.31,3.31,0,0,1,.76-.28c.75-.08,1.51.49,1.2,1.3a1.08,1.08,0,0,0,.05,1.15.58.58,0,0,1,.06.36c-.06,1.36-.13,2.71-.2,4.07a1.75,1.75,0,0,1-1.76,1.82c-1.2.08-2.4.12-3.6.23a8.37,8.37,0,0,0-1.24.34c-.62.16-1.24.44-1.82-.16s-.47-1.23.32-1.64a8.16,8.16,0,0,1,3.62-.63,12.92,12.92,0,0,0,1.9-.25c.47-.09,1-1,.78-1.29s-.13-.7,0-1A8.76,8.76,0,0,0,261.2,97.66Z"/><path d="M267.52,67l.34.82a9.21,9.21,0,0,0-.65.77,2,2,0,0,0-.46.9,5.22,5.22,0,0,1-1.31,2.9,1.71,1.71,0,0,0-.39,1.84,3.58,3.58,0,0,1-.17,2.07,2.89,2.89,0,0,1-.92,1.11,5.91,5.91,0,0,1-1.22.85c-.48.25-.86,0-1.17-.56s-.13-.77.35-1.07c.29-.18.56-.38.85-.54s.4-.44.32-.84a4.28,4.28,0,0,1,.72-3.77,2.45,2.45,0,0,0,.23-.29,6.1,6.1,0,0,0,1.09-2,5.57,5.57,0,0,1,.83-1.65A1.37,1.37,0,0,1,267.52,67Z"/><path d="M256.74,56.33l-.54,1.17a3.39,3.39,0,0,1-.69-.16,3.68,3.68,0,0,0-2.47-.24c-1.63.41-3.31.22-4.94.55-.82.16-1.65.26-2.47.38a1.21,1.21,0,0,1-1.23-.49,1,1,0,0,1-.18-.74.82.82,0,0,1,.61-.46c1.37.09,2.6-.55,3.92-.69.86-.09,1.73-.11,2.59-.19a11.46,11.46,0,0,0,1.63-.25,3.49,3.49,0,0,1,3.6.8A1.45,1.45,0,0,1,256.74,56.33Z"/><path d="M256.18,92.58a5.55,5.55,0,0,1-.22.74.87.87,0,0,1-1.29.5c-1.46-.95-3-.47-4.5-.29a7.9,7.9,0,0,1-2.21-.07,1.36,1.36,0,0,1-1.26-1.31c.26-.5.73-.47,1.2-.48q2.13-.07,4.27-.16a6.6,6.6,0,0,0,.82-.14c.15,0,.34-.12.45-.07C254.3,91.75,255.35,91.79,256.18,92.58Z"/><path d="M164.66,86.1a4.53,4.53,0,0,1-2.06.91c-.23,0-.47.23-.69.38-.63.42-1,.25-1.18-.49a1.37,1.37,0,0,1,1.54-1.59c.78.22,1.59.37,2.39.55Z"/></svg>